<svg width="24" height="24" viewBox="0 0 24 24" fill="none" xmlns="http://www.w3.org/2000/svg">
<g clip-path="url(#clip0_264_8893)">
<path d="M14.7703 16.4V18H3.57031V16.4C3.57031 16.4 3.57031 13.2 9.17031 13.2C14.7703 13.2 14.7703 16.4 14.7703 16.4ZM11.9703 8.80003C11.9703 8.24624 11.8061 7.70489 11.4984 7.24443C11.1908 6.78398 10.7535 6.42509 10.2418 6.21317C9.73019 6.00124 9.16721 5.94579 8.62406 6.05383C8.08091 6.16187 7.582 6.42854 7.19041 6.82013C6.79883 7.21172 6.53215 7.71063 6.42411 8.25378C6.31608 8.79692 6.37152 9.35991 6.58345 9.87154C6.79538 10.3832 7.15426 10.8205 7.61472 11.1281C8.07517 11.4358 8.61652 11.6 9.17031 11.6C9.91292 11.6 10.6251 11.305 11.1502 10.7799C11.6753 10.2548 11.9703 9.54264 11.9703 8.80003ZM14.7223 13.2C15.2141 13.5806 15.6165 14.0644 15.9013 14.6172C16.186 15.1701 16.3461 15.7786 16.3703 16.4V18H19.5703V16.4C19.5703 16.4 19.5703 13.496 14.7223 13.2ZM13.9703 6.00003C13.4197 5.99747 12.8813 6.16205 12.4263 6.47203C12.9123 7.15102 13.1736 7.96506 13.1736 8.80003C13.1736 9.635 12.9123 10.449 12.4263 11.128C12.8813 11.438 13.4197 11.6026 13.9703 11.6C14.7129 11.6 15.4251 11.305 15.9502 10.7799C16.4753 10.2548 16.7703 9.54264 16.7703 8.80003C16.7703 8.05742 16.4753 7.34523 15.9502 6.82013C15.4251 6.29503 14.7129 6.00003 13.9703 6.00003Z" fill="#5C5C5E"/>
</g>
<defs>
<clipPath id="clip0_264_8893">
<rect width="24" height="24" fill="white"/>
</clipPath>
</defs>
</svg>
