<svg width="28" height="28" viewBox="0 0 28 28" fill="none" xmlns="http://www.w3.org/2000/svg">
<rect width="28" height="28" rx="14" fill="#FF8543"/>
<path d="M13.8276 19H11.4917V17.7495H13.7451C14.4645 17.7495 15.0633 17.6162 15.5415 17.3496C16.0197 17.0788 16.3773 16.6831 16.6143 16.1626C16.8512 15.6379 16.9697 15.0031 16.9697 14.2583C16.9697 13.5177 16.8512 12.8893 16.6143 12.373C16.3815 11.8568 16.0324 11.4653 15.5669 11.1987C15.1014 10.9279 14.5238 10.7925 13.834 10.7925H11.4409V9.54199H13.9229C14.8496 9.54199 15.6452 9.73031 16.3096 10.1069C16.974 10.4836 17.4839 11.0252 17.8394 11.7319C18.1948 12.4344 18.3726 13.2765 18.3726 14.2583C18.3726 15.2443 18.1927 16.0907 17.833 16.7974C17.4775 17.5041 16.9613 18.0479 16.2842 18.4287C15.6071 18.8096 14.7882 19 13.8276 19ZM12.1899 9.54199V19H10.7617V9.54199H12.1899Z" fill="#F8F3EF"/>
</svg>
