<svg width="24" height="24" viewBox="0 0 24 24" fill="none" xmlns="http://www.w3.org/2000/svg">
<path d="M12.8286 20.5363L12.8195 20.5379L12.7602 20.5671L12.7436 20.5705L12.7319 20.5671L12.6727 20.5379C12.6638 20.5352 12.6571 20.5365 12.6527 20.5421L12.6493 20.5504L12.6351 20.9074L12.6393 20.9241L12.6477 20.9349L12.7344 20.9966L12.7469 21L12.7569 20.9966L12.8436 20.9349L12.8537 20.9216L12.857 20.9074L12.8428 20.5513C12.8406 20.5424 12.8359 20.5374 12.8286 20.5363ZM13.0496 20.442L13.0388 20.4437L12.8845 20.5213L12.8762 20.5296L12.8737 20.5388L12.8887 20.8974L12.8929 20.9074L12.8995 20.9132L13.0672 20.9908C13.0777 20.9936 13.0858 20.9914 13.0913 20.9841L13.0947 20.9725L13.0663 20.4604C13.0635 20.4504 13.058 20.4443 13.0496 20.442ZM12.4533 20.4437C12.4497 20.4415 12.4453 20.4407 12.4411 20.4417C12.4369 20.4426 12.4332 20.4451 12.4308 20.4487L12.4258 20.4604L12.3975 20.9725C12.398 20.9825 12.4027 20.9891 12.4116 20.9925L12.4241 20.9908L12.5918 20.9132L12.6001 20.9066L12.6035 20.8974L12.6176 20.5388L12.6151 20.5288L12.6068 20.5204L12.4533 20.4437Z" fill="#EAE9E3"/>
<path d="M19.6441 7.79624L19.6624 7.95469L19.6683 8.11649V14.1779C19.6682 14.5187 19.5846 14.8542 19.4248 15.1552C19.265 15.4561 19.0339 15.7134 18.7517 15.9043L18.6266 15.9835L13.3766 19.0143L13.2732 19.0701L13.1681 19.1202V11.6226L19.6441 7.79624ZM5.02419 7.79624L11.5001 11.6234V19.1193C11.429 19.0876 11.3595 19.0525 11.2916 19.0143L6.04249 15.9835C5.72554 15.8005 5.46234 15.5374 5.27935 15.2204C5.09635 14.9035 5.00001 14.5439 5 14.1779V8.11649C5 8.00807 5.00834 7.90132 5.02502 7.79624H5.02419ZM13.3766 3.28017L18.6258 6.3109C18.668 6.33592 18.7092 6.36149 18.7492 6.38762L12.3341 10.1798L5.91906 6.38679C5.95945 6.36002 6.00061 6.33444 6.04249 6.31006L11.2916 3.27933C11.6086 3.09634 11.9681 3 12.3341 3C12.7001 3 13.0597 3.09717 13.3766 3.28017Z" fill="white"/>
</svg>
