<svg width="24" height="24" viewBox="0 0 24 24" fill="none" xmlns="http://www.w3.org/2000/svg">
<path d="M18.2222 5.77778H16.4444V4.88889C16.4444 4.4 16.0444 4 15.5556 4H8.44444C7.95556 4 7.55556 4.4 7.55556 4.88889V5.77778H5.77778C4.8 5.77778 4 6.57778 4 7.55556V8.44444C4 10.7111 5.70667 12.56 7.90222 12.8356C8.18334 13.5017 8.6224 14.0893 9.18148 14.5477C9.74056 15.0061 10.4028 15.3215 11.1111 15.4667V18.2222H8.44444C7.95556 18.2222 7.55556 18.6222 7.55556 19.1111C7.55556 19.6 7.95556 20 8.44444 20H15.5556C16.0444 20 16.4444 19.6 16.4444 19.1111C16.4444 18.6222 16.0444 18.2222 15.5556 18.2222H12.8889V15.4667C13.5972 15.3215 14.2594 15.0061 14.8185 14.5477C15.3776 14.0893 15.8167 13.5017 16.0978 12.8356C18.2933 12.56 20 10.7111 20 8.44444V7.55556C20 6.57778 19.2 5.77778 18.2222 5.77778ZM5.77778 8.44444V7.55556H7.55556V10.9511C6.52444 10.5778 5.77778 9.6 5.77778 8.44444ZM18.2222 8.44444C18.2222 9.6 17.4756 10.5778 16.4444 10.9511V7.55556H18.2222V8.44444Z" fill="#666668"/>
</svg>
