<svg width="124" height="124" viewBox="0 0 124 124" fill="none" xmlns="http://www.w3.org/2000/svg">
<rect width="124" height="124" rx="62" transform="matrix(1 0 0 -1 0 124)" fill="#E12D27"/>
<path d="M59.3359 77.4279C61.356 77.7645 66.4561 77.7271 69.1122 77.353C72.6535 76.8667 74.3744 76.3928 76.781 75.2331C80.7089 73.3502 84.8115 69.8712 86.9937 66.5917C91.3954 59.9703 92.2309 50.3811 89.101 42.438C86.1831 35.056 80.871 29.5444 73.9753 26.7762C72.6161 26.2275 71.7183 25.7038 71.1197 25.0678C70.7083 24.6314 70.6959 24.6188 70.7208 23.4841C70.7457 22.5489 70.6958 22.2372 70.4838 21.8007C70.1721 21.1648 69.3491 20.3667 68.9875 20.3667C68.6757 20.3667 68.6757 20.4291 68.9999 21.4142C69.2368 22.1375 69.2494 22.2746 69.0998 22.7485C68.8753 23.4343 68.4139 23.7959 67.9525 23.6214C67.4039 23.4094 67.1171 23.0353 67.117 22.5241C67.117 22.1375 67.2043 21.9753 67.6782 21.5389C67.9899 21.2521 68.2393 20.9654 68.2393 20.878C68.2393 20.6536 67.6532 20.7159 66.9674 21.0152L66.3315 21.2895L65.9324 20.8281C65.7204 20.5787 65.284 19.9179 64.9598 19.3443C64.2989 18.1722 64.2241 17.6733 64.6355 17.0125C64.9722 16.4513 64.7977 16.3266 64.1493 16.6384C63.4385 16.9875 62.9896 17.611 62.9023 18.3218L62.84 18.8953L62.5407 18.2844C62.1416 17.4988 61.3435 16.6882 60.5829 16.3141C59.9968 16.0148 59.5106 15.9151 59.5106 16.0772C59.5107 16.1148 59.76 16.4389 60.0717 16.8005C61.0693 17.9726 61.4808 19.2694 61.1316 20.1673C60.9446 20.6785 60.1091 21.5139 59.5355 21.7633C58.9869 22.0127 58.8123 21.9754 58.538 21.5888C58.301 21.2646 57.4655 20.8655 57.0166 20.8655C56.5802 20.8655 56.5303 21.09 56.8919 21.4266C57.2037 21.701 57.2161 22.2621 56.9293 22.5115C56.5802 22.8108 55.9318 23.11 55.6076 23.11C55.0963 23.11 54.024 22.4866 53.6374 21.9504C53.1137 21.2271 52.9765 20.6162 53.1386 19.6934C53.3257 18.646 53.1511 18.5213 52.5151 19.232C51.343 20.5413 50.8691 22.1998 50.8566 24.993C50.8441 26.8759 50.8317 26.9507 50.5075 27.437C50.3329 27.7114 49.884 28.1228 49.5099 28.3473C47.5771 29.5444 46.8539 30.0682 45.7815 31.0034C45.1332 31.577 44.597 32.1504 44.5844 32.2752C44.5594 32.4498 44.7465 32.6618 45.1705 32.9611C46.8788 34.1457 47.4275 36.3404 46.6419 38.7346C46.3301 39.7072 46.1555 40.0315 45.3949 41.1662C43.8611 43.4356 41.2051 45.3933 38.9481 45.9295C38.3246 46.0791 37.3769 46.0542 36.3544 45.8547C35.9679 45.7799 35.9679 45.7799 35.8058 46.5032C35.7185 46.9147 35.6436 47.7999 35.6436 48.4858C35.6312 49.6205 35.6687 49.8076 35.9929 50.4809C36.4917 51.5034 38.4992 53.4736 40.8061 55.2194C42.8012 56.7282 43.5494 57.3642 43.5494 57.5638C43.5493 57.6385 43.25 57.6635 42.7639 57.6261C41.3673 57.5139 39.2599 56.3666 37.0652 54.5335C35.2322 53.0123 33.8481 52.1768 30.5062 50.6306C28.2866 49.5956 26.9772 49.1217 26.0046 48.9845L25.3438 48.8974V49.3212C25.3562 50.3313 27.0397 53.5859 28.7605 55.8678C30.9427 58.7857 34.1847 61.5041 37.3894 63.1252C38.6488 63.7611 38.8609 63.9481 39.8709 65.3821C41.1178 67.1528 41.9408 68.113 43.2377 69.36C47.4898 73.4251 53.575 76.4802 59.3359 77.4279ZM88.5399 36.1782C88.7768 36.1283 89.5874 34.5322 89.9864 33.3351C90.8842 30.5918 91.0961 27.25 90.56 24.2199C90.2981 22.7859 89.2009 19.9929 88.8891 19.9926C88.8018 19.9926 88.5523 20.6162 88.3154 21.3768C87.3927 24.4319 86.2704 26.3896 83.5272 29.7813L83.2902 30.0681L84.5496 31.4523C85.2354 32.2129 86.3827 33.597 87.081 34.5198C87.854 35.5422 88.4275 36.203 88.5399 36.1782ZM37.0278 42.7123C37.751 43.0615 37.8882 43.0865 38.786 43.0366C39.5841 42.9867 39.8958 42.9119 40.5567 42.5503C41.5044 42.0515 43.1005 40.5427 43.6118 39.6449C44.4597 38.1859 44.7715 36.5897 44.3849 35.667C44.123 35.056 43.3125 34.4075 42.0905 33.8339C39.6589 32.6867 38.7985 32.1879 37.2523 31.0283C34.5962 29.0207 32.7631 26.9382 31.1546 24.0702C30.9675 23.746 30.768 23.4841 30.7057 23.4841C30.6433 23.4841 30.5311 23.6961 30.4687 23.9455C30.0572 25.5042 29.9326 28.472 30.2069 30.6542C30.3565 31.9261 30.8054 33.8963 31.2169 35.0934C31.6159 36.278 32.7258 38.3853 33.474 39.3829C34.509 40.7546 36.1175 42.2634 37.0278 42.7123ZM92.6424 55.132C92.5676 56.0673 92.5801 56.2917 92.7048 56.2543C92.9418 56.1667 94.4256 53.6231 95.6102 51.2291C96.6701 49.1092 97.2561 47.5131 98.3036 43.9094C98.9769 41.59 99.2887 40.1436 99.2887 39.2832C99.2887 38.1983 99.0393 38.323 97.8297 39.994C97.2686 40.7796 96.2711 42.0515 95.6351 42.837C94.9992 43.6101 94.226 44.5952 93.9142 45.0316C93.615 45.4556 93.1786 46.0791 92.9542 46.3909L92.5427 46.9644L92.6424 48.5357C92.7671 50.5557 92.7671 53.6482 92.6424 55.132ZM85.0234 59.5963C82.941 61.6787 80.9833 62.2772 78.7388 61.5041C77.7287 61.155 77.1177 60.7559 76.3321 59.933C75.5466 59.11 75.0976 58.3118 74.5988 56.8404L74.2621 55.8428L73.7259 55.7557C72.6536 55.5686 71.843 54.5585 71.6061 53.1121C71.3442 51.4785 72.4915 51.0919 72.9653 52.6631C73.0402 52.9249 73.1648 53.1869 73.2396 53.2368C73.6511 53.4862 74.6612 52.7006 79.7114 48.1242C83.0408 45.119 84.4374 43.8845 84.9985 43.4605C85.4848 43.0865 85.9837 43.1114 86.3079 43.5104C86.6196 43.9094 86.6321 44.1963 86.3702 44.6951C86.1956 45.0567 86.2081 45.1315 86.6819 46.5405C87.7044 49.5457 87.7543 49.845 87.7543 52.5384C87.7543 54.8577 87.7293 55.0199 87.4176 55.8803C86.9188 57.252 86.1332 58.474 85.0234 59.5963ZM63.3512 60.706C61.1067 63.1625 57.8272 64.3597 54.7971 63.836C52.5401 63.4494 50.7569 62.5017 49.2481 60.9056C47.8764 59.4466 47.1033 57.7882 46.7168 55.4563C46.4674 53.9475 46.5421 50.5557 46.8539 48.9222C47.2529 46.8647 47.2529 46.977 46.7416 46.4782C46.2553 46.0044 46.1805 45.6428 46.4798 45.2188C46.7791 44.7824 47.3651 44.8073 48.5497 45.2812C48.7243 45.3435 52.2532 47.1765 56.4056 49.3338C63.9369 53.2491 65.0096 53.7853 65.3214 53.7854C65.5333 53.7854 65.6706 53.511 65.8577 52.7254C66.0447 51.9524 66.1818 51.7902 66.6183 51.7902C67.0547 51.7902 67.3165 52.0896 67.5035 52.8253C67.8776 54.3466 67.0173 56.005 65.6207 56.4165C65.3464 56.5038 65.072 56.6285 65.0096 56.7033C64.9473 56.7782 64.8226 57.3143 64.7478 57.9003C64.5857 59.0974 64.2989 59.671 63.3512 60.706ZM77.5915 56.192C78.028 56.5661 78.7014 56.7905 79.1129 56.6908C80.4097 56.379 81.4072 53.9849 81.083 51.9648C80.9459 51.092 80.7838 50.6679 80.5842 50.6679C80.5219 50.6679 79.9732 51.1293 79.3747 51.6905C78.7637 52.2641 77.9032 53.0497 77.4419 53.4612C76.9431 53.8852 76.594 54.2842 76.594 54.4338C76.594 54.8204 77.18 55.8428 77.5915 56.192ZM57.3783 56.9902C57.9643 57.1523 58.1639 57.1647 58.6377 57.04C60.0966 56.641 60.8323 55.2195 60.1091 54.1596C59.5978 53.4363 55.9692 51.4162 55.1462 51.4162C54.8968 51.4162 54.6474 51.4537 54.61 51.5036C54.3607 51.753 54.8096 53.748 55.3832 54.9825C55.9194 56.1297 56.5304 56.7408 57.3783 56.9902ZM73.7509 68.7739C72.8531 70.8189 69.2993 72.6395 67.0173 72.228C65.4337 71.9287 63.7752 70.7067 63.4385 69.5844C63.1766 68.6866 63.1891 67.1031 63.4759 66.7663L63.6879 66.492L65.9948 66.704C67.9774 66.891 68.5885 66.9035 70.3591 66.7663C71.4939 66.6915 72.6161 66.5792 72.8531 66.5293C73.3643 66.4047 73.6636 66.467 73.8756 66.7164C74.1001 67.0032 74.0377 68.113 73.7509 68.7739ZM67.8778 71.1181C69.2743 71.1181 69.6859 70.9809 69.8729 70.4074C70.0599 69.8213 69.9477 68.8736 69.6609 68.6616C69.4364 68.4995 69.187 68.4871 66.6931 68.6118C65.1718 68.6991 65.0347 68.7739 65.1718 69.5221C65.3713 70.5944 66.2443 71.1057 67.8778 71.1181ZM90.959 85.3335C92.0065 85.3335 92.3307 84.5355 92.0813 82.6276C91.9192 81.468 92.0439 80.857 92.4928 80.3956C92.9915 79.8968 93.4904 79.9966 94.6875 80.8071C95.498 81.3557 95.8472 81.5178 96.3085 81.5677C97.5056 81.6799 97.942 81.3183 97.942 80.2334C97.917 78.3131 95.1363 75.4576 91.4828 73.637C90.0238 72.9013 86.5198 71.7416 85.7965 71.7416C85.709 71.7419 84.9859 72.4027 84.2004 73.213C83.4024 74.0111 82.2054 75.1085 81.532 75.6571C80.5469 76.4552 80.3474 76.6671 80.4845 76.7918C80.5718 76.8666 81.4073 77.2033 82.33 77.54C84.2503 78.2258 85.4101 78.7745 86.5822 79.5476C88.2033 80.62 88.8267 81.4555 89.2382 83.1389C89.6373 84.735 90.0986 85.3335 90.959 85.3335ZM55.9691 105.347C56.0689 108.54 56.0939 108.564 57.1663 106.931C58.7873 104.474 61.0194 102.429 62.9147 101.694C63.2764 101.544 64.1618 101.208 64.8975 100.921C67.9026 99.761 71.1198 96.9677 74.3245 92.7156C75.4966 91.1444 76.7436 88.663 77.1427 87.0669C77.9158 84.0243 77.841 79.7472 77.018 78.8369C76.7312 78.5127 76.6812 78.5252 73.9753 79.4604C71.5936 80.2834 69.611 80.8196 67.6782 81.1687C66.7055 81.3433 65.8202 81.4056 63.6879 81.3932C61.1815 81.3932 60.8074 81.3682 59.3359 81.0565C55.2584 80.1836 50.5324 78.1261 47.178 75.7569C46.592 75.3329 45.7191 74.6846 45.2452 74.298C44.7714 73.9239 44.2601 73.6122 44.123 73.6122C43.9731 73.6248 42.9133 74.111 41.7413 74.7095C37.4643 76.9041 34.8207 78.9865 32.6884 81.867C31.3791 83.6377 30.4813 85.9945 30.606 87.3412C30.6932 88.1393 30.8554 88.3264 31.5412 88.3264C32.3392 88.3264 32.6635 88.1019 33.686 86.8424C34.1972 86.2065 34.721 85.6205 34.8706 85.5207C35.2946 85.2214 35.9803 85.2838 36.3295 85.6578C36.6163 85.9571 36.6287 86.0693 36.6412 87.4909C36.6537 89.1743 36.7785 89.5982 37.4269 90.0596C37.8633 90.3713 38.6364 90.4087 39.0479 90.1219C39.5093 89.7977 39.7087 89.1243 39.821 87.5158C39.9456 85.7327 40.245 85.0094 41.3922 83.7001C43.4497 81.3433 45.9561 80.059 48.5373 80.0465C49.4725 80.034 49.6845 80.0839 50.4077 80.4206C52.6398 81.493 53.7995 83.5256 54.5851 87.7652C54.8843 89.3986 55.1461 92.3411 54.9841 92.192C54.9342 92.1545 54.5975 90.9699 54.2234 89.5733C53.1759 85.608 52.6148 83.9994 51.9165 82.9395C51.2805 81.9544 50.8067 81.5055 50.3204 81.4057C50.1708 81.3683 49.8965 81.3184 49.7469 81.281C49.5848 81.2561 49.3478 81.2934 49.2231 81.3932C48.9987 81.5553 49.0111 81.6177 49.3478 83.0392C49.8466 85.1715 50.47 86.8799 52.3529 91.2692C53.2632 93.4015 54.2234 95.6709 54.4604 96.3194C55.4829 98.9629 55.8444 101.17 55.9691 105.347Z" fill="#F7F7E9"/>
</svg>
