<svg width="27" height="27" viewBox="0 0 27 27" fill="none" xmlns="http://www.w3.org/2000/svg">
<path fill-rule="evenodd" clip-rule="evenodd" d="M10.3955 4.01545C10.6534 3.98166 10.9141 4.0516 11.1204 4.20989C11.3267 4.36819 11.4617 4.6019 11.4958 4.85969L11.7925 7.10645C11.8094 7.23431 11.8009 7.36424 11.7675 7.48882C11.7342 7.6134 11.6767 7.7302 11.5982 7.83254C11.4397 8.03923 11.2056 8.17449 10.9473 8.20856C10.6891 8.24264 10.4279 8.17274 10.2213 8.01424C10.0146 7.85575 9.87931 7.62164 9.84524 7.36341L9.55259 5.11587C9.53568 4.98809 9.5441 4.85823 9.57739 4.73371C9.61068 4.60919 9.66817 4.49245 9.74659 4.39016C9.825 4.28786 9.9228 4.20202 10.0344 4.13753C10.146 4.07305 10.2692 4.03118 10.397 4.01432M5.13047 8.06363C5.03111 8.30393 5.03119 8.57384 5.1307 8.81408C5.23021 9.05432 5.421 9.24524 5.66118 9.3449L7.75476 10.2117C7.87464 10.2663 8.0043 10.2963 8.136 10.2997C8.2677 10.3032 8.39875 10.2801 8.52133 10.2318C8.64391 10.1835 8.75552 10.1111 8.84949 10.0187C8.94346 9.92639 9.01787 9.81608 9.06829 9.69436C9.11871 9.57264 9.1441 9.44202 9.14295 9.31027C9.1418 9.17853 9.11413 9.04837 9.06159 8.92756C9.00905 8.80674 8.93272 8.69774 8.83715 8.60705C8.74158 8.51637 8.62873 8.44586 8.50532 8.39973L6.41191 7.53162C6.17161 7.43226 5.9017 7.43234 5.66146 7.53185C5.42122 7.63136 5.2303 7.82216 5.13064 8.06233M10.5024 11.3626C10.4564 11.1241 10.4777 10.8776 10.5638 10.6506C10.65 10.4235 10.7976 10.225 10.9902 10.0771C11.1828 9.92917 11.4127 9.83779 11.6543 9.81315C11.8959 9.78851 12.1395 9.83159 12.358 9.93756L21.1879 14.2341C22.3289 14.7894 22.0905 16.4801 20.8398 16.6982L18.103 17.1784L21.1442 21.1418C21.3554 21.4172 21.4485 21.7652 21.4031 22.1093C21.3577 22.4533 21.1774 22.7653 20.902 22.9765C20.6266 23.1876 20.2786 23.2808 19.9345 23.2353C19.5904 23.1899 19.2785 23.0097 19.0673 22.7343L16.0196 18.7608L14.8374 21.3051C14.3033 22.4554 12.6072 22.248 12.3661 21.0022L10.5024 11.3626ZM6.86309 14.8898C6.76115 14.9709 6.64408 15.0309 6.51869 15.0664C6.3933 15.1018 6.26212 15.1119 6.13279 15.096C6.00346 15.0802 5.87858 15.0388 5.76543 14.9742C5.65228 14.9096 5.55313 14.8231 5.47377 14.7198C5.3944 14.6165 5.33641 14.4983 5.30318 14.3724C5.26994 14.2464 5.26213 14.115 5.2802 13.986C5.29826 13.857 5.34185 13.7328 5.40841 13.6208C5.47496 13.5088 5.56316 13.4112 5.66786 13.3336L7.46732 11.954C7.67436 11.8064 7.9306 11.745 8.18205 11.7826C8.43349 11.8203 8.66052 11.954 8.8153 12.1557C8.97007 12.3574 9.04051 12.6113 9.01178 12.864C8.98304 13.1166 8.85738 13.3482 8.66126 13.51L6.86309 14.8898ZM16.368 7.44359C16.5695 7.28354 16.7 7.05077 16.7315 6.79541C16.763 6.54006 16.6929 6.28255 16.5364 6.07836C16.3799 5.87416 16.1494 5.73962 15.8946 5.7037C15.6398 5.66778 15.3812 5.73337 15.1743 5.88633L13.3748 7.26594C13.1735 7.42619 13.0432 7.65908 13.012 7.91446C12.9807 8.16985 13.051 8.42729 13.2078 8.63133C13.3645 8.83538 13.5951 8.96971 13.8499 9.00538C14.1047 9.04106 14.3633 8.97523 14.57 8.82208L16.368 7.44359Z" fill="white" fill-opacity="0.48"/>
</svg>
