<svg width="24" height="24" viewBox="0 0 24 24" fill="none" xmlns="http://www.w3.org/2000/svg">
<path d="M19.1408 8.05891C19.6907 8.60923 19.9997 9.35531 20 10.1333V17.0661C20 17.8441 19.6909 18.5903 19.1407 19.1405C18.5906 19.6906 17.8444 19.9997 17.0664 19.9997H10.1336C9.35554 19.9997 8.60937 19.6906 8.05921 19.1405C7.50906 18.5903 7.19998 17.8441 7.19998 17.0661L7.19998 10.1333C7.19998 10.105 7.20132 10.0778 7.20398 10.0517C7.22381 9.28812 7.54124 8.56252 8.08856 8.0297C8.63588 7.49688 9.36974 7.19903 10.1336 7.19971H17.0664C17.8448 7.19971 18.5904 7.50851 19.1408 8.05891Z" fill="#F7F7E9"/>
<path d="M16.2992 5.2112C16.3503 5.30302 16.3827 5.404 16.3948 5.50837C16.4068 5.61274 16.3982 5.71845 16.3693 5.81948C16.3405 5.92051 16.2921 6.01488 16.2268 6.09719C16.1615 6.1795 16.0806 6.24814 15.9888 6.2992C15.897 6.35026 15.796 6.38273 15.6916 6.39476C15.5873 6.40679 15.4815 6.39815 15.3805 6.36933C15.2795 6.34051 15.1851 6.29207 15.1028 6.22677C15.0205 6.16148 14.9519 6.08062 14.9008 5.9888C14.724 5.6704 14.6272 5.6 14.4 5.6L6.4 5.6C5.9616 5.6 5.6 5.9616 5.6 6.4L5.6 14.3984C5.6 14.6864 5.7552 14.952 6.0056 15.0944C6.09689 15.1464 6.17705 15.2159 6.2415 15.2988C6.30594 15.3818 6.35341 15.4767 6.38119 15.578C6.40898 15.6793 6.41653 15.7852 6.40342 15.8894C6.39032 15.9936 6.3568 16.0943 6.3048 16.1856C6.2528 16.2769 6.18332 16.357 6.10034 16.4215C6.01736 16.4859 5.92249 16.5334 5.82117 16.5612C5.71984 16.589 5.61403 16.5965 5.50979 16.5834C5.40554 16.5703 5.30489 16.5368 5.2136 16.4848C4.84529 16.2753 4.53899 15.9721 4.32583 15.6059C4.11268 15.2398 4.00026 14.8237 4 14.4L4 6.4C4 5.0784 5.0784 4 6.4 4L14.4 4C15.2752 4 15.8624 4.4264 16.2992 5.2112Z" fill="#F7F7E9"/>
</svg>
