<svg width="24" height="24" viewBox="0 0 24 24" fill="none" xmlns="http://www.w3.org/2000/svg">
<path fill-rule="evenodd" clip-rule="evenodd" d="M9.74709 3C10.0426 3 10.3351 3.0582 10.6081 3.17127C10.8811 3.28434 11.1291 3.45008 11.3381 3.65901C11.547 3.86794 11.7127 4.11598 11.8258 4.38896C11.9389 4.66194 11.9971 4.95453 11.9971 5.25V9.3945L16.8949 9.939C17.7753 10.0369 18.5887 10.4559 19.1795 11.116C19.7703 11.776 20.097 12.6307 20.0971 13.5165V13.8C20.0971 15.7096 19.3385 17.5409 17.9883 18.8912C16.638 20.2414 14.8066 21 12.8971 21H12.2905C10.9535 21 9.64284 20.6276 8.50549 19.9247C7.36814 19.2218 6.44898 18.2161 5.85099 17.0202L3.29319 11.9046C2.96919 11.2566 3.20949 10.3899 3.96549 10.0794C4.90329 9.6951 5.79609 9.6231 6.71409 10.0902C6.98049 10.2264 7.24149 10.4016 7.49709 10.6158V5.25C7.49709 4.65326 7.73414 4.08097 8.1561 3.65901C8.57806 3.23705 9.15035 3 9.74709 3ZM9.74709 4.8C9.62774 4.8 9.51328 4.84741 9.42889 4.9318C9.3445 5.01619 9.29709 5.13065 9.29709 5.25V12.9C9.29718 13.0865 9.2393 13.2685 9.13145 13.4207C9.02361 13.5729 8.87113 13.6879 8.69511 13.7496C8.51908 13.8114 8.32822 13.817 8.1489 13.7655C7.96959 13.7141 7.81069 13.6082 7.69419 13.4625L7.39539 13.0962L7.12359 12.7776C6.60159 12.1863 6.22179 11.8596 5.89959 11.6949C5.67007 11.5701 5.40308 11.5326 5.14809 11.5896L7.46109 16.2156C7.90963 17.1124 8.59899 17.8666 9.45196 18.3937C10.3049 18.9208 11.2878 19.2 12.2905 19.2H12.8971C14.3293 19.2 15.7028 18.6311 16.7155 17.6184C17.7282 16.6057 18.2971 15.2322 18.2971 13.8V13.5165C18.2971 13.0734 18.1337 12.6458 17.8381 12.3157C17.5425 11.9855 17.1355 11.776 16.6951 11.7273L11.7982 11.1837C11.3578 11.135 10.9508 10.9255 10.6552 10.5953C10.3596 10.2652 10.1962 9.83763 10.1962 9.3945V5.25C10.1962 5.13065 10.1488 5.01619 10.0644 4.9318C9.98 4.84741 9.86554 4.8 9.74619 4.8H9.74709ZM6.47109 4.6182C6.53163 4.71992 6.57151 4.83259 6.58844 4.94975C6.60537 5.0669 6.59903 5.18625 6.56977 5.30095C6.54051 5.41565 6.48891 5.52345 6.41792 5.61818C6.34694 5.71291 6.25796 5.79271 6.15609 5.853C5.72588 6.10788 5.32663 6.4117 4.96629 6.7584C4.88409 6.837 4.80519 6.9189 4.72959 7.0041L4.62069 7.1355C4.47945 7.32686 4.26821 7.45454 4.03312 7.49063C3.79804 7.52672 3.55822 7.46829 3.36609 7.3281C3.1751 7.18587 3.04755 6.97438 3.01086 6.7391C2.97417 6.50381 3.03127 6.26352 3.16989 6.0699C3.33285 5.85454 3.51347 5.65315 3.70989 5.4678C4.17172 5.02304 4.68365 4.63343 5.23539 4.3068C5.33691 4.24629 5.44936 4.20636 5.56632 4.1893C5.68327 4.17225 5.80244 4.1784 5.91702 4.2074C6.0316 4.2364 6.13934 4.28768 6.2341 4.35832C6.32886 4.42896 6.40878 4.51757 6.46929 4.6191L6.47109 4.6182ZM12.9718 4.2582C13.0672 4.03947 13.2455 3.86758 13.4677 3.78033C13.6898 3.69307 13.9374 3.69759 14.1562 3.7929C14.9861 4.15199 15.7544 4.63911 16.4332 5.2365C16.7176 5.4885 16.9993 5.7612 17.2243 6.0699C17.3649 6.26277 17.4231 6.50358 17.3861 6.73936C17.3491 6.97515 17.22 7.18659 17.0272 7.3272C16.6582 7.5972 16.1533 7.5342 15.8446 7.2174L15.625 6.9609L15.499 6.8286L15.3352 6.6693C14.7752 6.15806 14.134 5.74351 13.438 5.4426C13.2193 5.34736 13.0474 5.16923 12.96 4.94732C12.8726 4.72541 12.8768 4.47698 12.9718 4.2582Z" fill="white"/>
</svg>
