<svg width="24" height="24" viewBox="0 0 24 24" fill="none" xmlns="http://www.w3.org/2000/svg">
<path d="M18.9419 5.4929C17.6473 4.88717 16.263 4.44695 14.8157 4.19629C14.638 4.51763 14.4304 4.94984 14.2872 5.29367C12.7487 5.0623 11.2245 5.0623 9.7143 5.29367C9.57116 4.94984 9.3588 4.51763 9.17947 4.19629C7.73067 4.44695 6.3448 4.88879 5.05016 5.49611C2.43887 9.44211 1.73099 13.2901 2.08493 17.0835C3.81688 18.3768 5.49534 19.1625 7.14548 19.6766C7.55291 19.1159 7.91628 18.5198 8.22931 17.8916C7.63313 17.6651 7.06211 17.3855 6.52256 17.061C6.6657 16.9549 6.80571 16.8441 6.94098 16.73C10.2318 18.2692 13.8074 18.2692 17.0589 16.73C17.1958 16.8441 17.3358 16.9549 17.4774 17.061C16.9362 17.3871 16.3637 17.6667 15.7675 17.8932C16.0805 18.5198 16.4423 19.1175 16.8513 19.6782C18.503 19.1641 20.183 18.3784 21.915 17.0835C22.3303 12.686 21.2056 8.87334 18.9419 5.4929ZM8.67765 14.7506C7.68977 14.7506 6.87963 13.8283 6.87963 12.7053C6.87963 11.5822 7.67247 10.6584 8.67765 10.6584C9.68285 10.6584 10.493 11.5806 10.4757 12.7053C10.4772 13.8283 9.68285 14.7506 8.67765 14.7506ZM15.3223 14.7506C14.3344 14.7506 13.5243 13.8283 13.5243 12.7053C13.5243 11.5822 14.3171 10.6584 15.3223 10.6584C16.3275 10.6584 17.1376 11.5806 17.1203 12.7053C17.1203 13.8283 16.3275 14.7506 15.3223 14.7506Z" fill="white"/>
</svg>
