<svg width="512" height="512" viewBox="0 0 512 512" fill="none" xmlns="http://www.w3.org/2000/svg">
<path d="M74 21.3333V430.935L255.5 490.876L437 430.935V21.3333H74Z" fill="#E12D27"/>
<path d="M142.062 96.4342V172.066H368.938V96.4342L354.724 93.8013L340.601 91.259L326.387 127.395H283.837L269.714 78.2753L255.5 75.7331L241.377 78.2753L227.163 127.395H184.613L170.49 91.259L156.276 93.8013L142.062 96.4342Z" fill="white"/>
<path d="M159.078 189.066H351.922L368.938 376.066H142.062L159.078 189.066Z" fill="white"/>
<path d="M198.781 230.433H284.108C303.757 230.433 315.477 239.401 315.477 256.115C315.477 271.454 303.238 279.552 289.624 280.254C306.515 280.941 317.891 289.895 317.891 306.792C317.891 325.569 302.206 333.849 281.35 333.849H198.781V230.433ZM286.866 270.247V253.364H225.16V270.247H286.866ZM225.16 293.684V310.932H289.104V293.684H225.16Z" fill="#E12D27"/>
</svg>
