<svg width="1922" height="1188" viewBox="0 0 1922 1188" fill="none" xmlns="http://www.w3.org/2000/svg">
<g opacity="0.09">
<ellipse cx="593.596" cy="593.851" rx="593" ry="593.096" transform="rotate(90 593.596 593.851)" stroke="white"/>
<rect x="0.5" y="0.85083" width="1186.19" height="1186" stroke="white"/>
<ellipse cx="1553.6" cy="367.696" rx="366.845" ry="366.904" transform="rotate(90 1553.6 367.696)" stroke="white"/>
<rect x="1186.69" y="0.85083" width="733.808" height="733.69" stroke="white"/>
<ellipse cx="1694.31" cy="960.695" rx="226.155" ry="226.192" transform="rotate(90 1694.31 960.695)" stroke="white"/>
<rect x="1468.12" y="734.54" width="452.384" height="452.31" stroke="white"/>
<ellipse cx="1327.4" cy="1046.16" rx="140.69" ry="140.712" transform="rotate(90 1327.4 1046.16)" stroke="white"/>
<rect x="1186.69" y="905.472" width="281.425" height="281.379" stroke="white"/>
<rect x="0.5" y="453.161" width="733.808" height="733.69" stroke="white"/>
<rect x="0.5" y="0.85083" width="733.808" height="733.69" stroke="white"/>
<rect x="0.5" y="0.85083" width="1920" height="734" stroke="white"/>
<ellipse cx="1272.17" cy="820.006" rx="85.4656" ry="85.4794" transform="rotate(90 1272.17 820.006)" stroke="white"/>
<rect x="1186.69" y="734.54" width="170.959" height="170.931" stroke="white"/>
<ellipse cx="1412.88" cy="789.764" rx="55.2239" ry="55.2329" transform="rotate(90 1412.88 789.764)" stroke="white"/>
<rect x="1357.65" y="734.54" width="110.466" height="110.448" stroke="white"/>
<line x1="0.762796" y1="0.425462" x2="1920.68" y2="1186.56" stroke="white"/>
<line x1="1920.5" y1="453.661" x2="0.5" y2="453.661" stroke="white"/>
<line x1="1920.5" y1="328.75" x2="0.5" y2="328.75" stroke="white"/>
<line x1="1920.5" y1="845.488" x2="0.5" y2="845.488" stroke="white"/>
<line y1="-0.5" x2="1395.35" y2="-0.5" transform="matrix(-0.526838 0.849966 -0.850042 -0.526715 735.623 0.85083)" stroke="white"/>
<line y1="-0.5" x2="1395.35" y2="-0.5" transform="matrix(-0.526838 0.849966 -0.850042 -0.526715 1920.5 0.85083)" stroke="white"/>
<line x1="532.288" y1="0.85083" x2="532.288" y2="1186.85" stroke="white"/>
<line x1="1389.71" y1="0.85083" x2="1389.71" y2="1186.85" stroke="white"/>
</g>
</svg>
