<svg width="860" height="291" viewBox="0 0 860 291" fill="none" xmlns="http://www.w3.org/2000/svg">
<g filter="url(#filter0_dn_1527_1247)">
<path d="M92.2889 212.082H93.7529L118.907 32H154.042L112.651 258.662H73.2573L32 32H67.2683L92.2889 212.082ZM274.886 258.662H240.283L234.028 218.054H191.972L185.983 258.662H151.247L193.569 32H232.431L274.886 258.662ZM378.428 181.029H379.227C378.872 176.34 378.384 171.12 377.763 165.369C377.231 159.53 376.743 152.541 376.299 144.402C375.855 136.263 375.634 126.354 375.634 114.676V32H406.244V258.662H378.695L323.463 113.614H322.398C322.842 118.922 323.33 124.717 323.862 130.999C324.395 137.28 324.883 145.198 325.326 154.753C325.77 164.308 325.992 176.738 325.992 192.043V258.662H295.648V32H322.931L378.428 181.029ZM478.378 258.662H443.908V32H478.378V258.662ZM550.511 231.59H597.491V258.662H516.041V32H550.511V231.59ZM648.996 231.59H695.977V258.662H614.527V32H648.996V231.59ZM828 258.662H793.397L787.142 218.054H745.086L739.097 258.662H704.361L746.683 32H785.545L828 258.662ZM195.965 192.176H230.035L213.798 78.7124H212.334L195.965 192.176ZM749.079 192.176H783.149L766.913 78.7124H765.449L749.079 192.176Z" fill="#F7F7E9"/>
</g>
<g filter="url(#filter1_n_1527_1247)">
<path d="M333.869 105.241C335.956 105.241 336.999 106.073 336.999 107.737C336.999 108.777 336.165 109.714 334.496 110.547C333.87 110.755 333.034 111.275 331.991 112.107C331.156 112.731 329.487 114.396 326.983 117.101C324.688 119.805 322.601 122.926 320.723 126.463C318.845 130 317.176 134.994 315.715 141.444C314.255 147.686 313.524 154.657 313.524 162.356C313.524 186.283 311.228 204.281 306.638 216.349C302.882 226.544 296.935 235.179 288.797 242.254C280.659 249.12 273.043 253.802 265.948 256.299C259.062 258.796 252.802 260.043 247.168 260.043C231.935 260.043 224.319 254.113 224.319 242.254C224.319 230.186 230.997 219.263 244.351 209.483C250.611 204.906 257.392 201.888 264.695 200.432C265.739 200.432 266.26 200.848 266.26 201.68C266.26 202.096 266.052 202.512 265.635 202.928C260.419 206.881 255.41 213.02 250.611 221.342C246.02 229.665 243.725 236.947 243.725 243.189C243.725 249.431 246.333 252.553 251.55 252.553C255.723 252.553 259.792 250.889 263.757 247.56C267.93 244.022 271.06 240.485 273.147 236.948L276.278 231.954C280.451 225.296 283.893 214.684 286.606 200.12C289.527 185.555 291.405 172.654 292.24 161.419L293.179 144.565C293.179 142.901 292.866 142.069 292.24 142.069L290.988 142.693L260.001 178.897C259.986 178.915 259.97 178.931 259.955 178.948L258.533 171.357L258.749 171.095C282.537 144.462 296.101 128.336 299.44 122.718C302.569 117.933 307.16 113.771 313.211 110.234C319.053 106.905 325.94 105.241 333.869 105.241ZM419.455 105.241C421.542 105.241 422.586 106.073 422.586 107.737C422.586 108.777 421.751 109.714 420.082 110.547C419.456 110.755 418.621 111.275 417.578 112.107C416.744 112.731 415.074 114.396 412.57 117.101C410.275 119.806 408.187 122.926 406.309 126.463C404.431 130 402.762 134.994 401.301 141.444C399.841 147.686 399.111 154.657 399.111 162.356C399.111 186.283 396.815 204.281 392.225 216.349C388.469 226.544 382.521 235.179 374.383 242.254C366.245 249.12 358.629 253.802 351.534 256.299C344.648 258.795 338.388 260.043 332.754 260.043C317.521 260.043 309.905 254.113 309.905 242.254C309.905 230.186 316.583 219.263 329.937 209.483C336.197 204.906 342.979 201.888 350.283 200.432C351.326 200.432 351.847 200.848 351.848 201.68C351.848 202.096 351.638 202.512 351.221 202.928C346.005 206.881 340.996 213.02 336.197 221.342C331.607 229.665 329.311 236.947 329.311 243.189C329.311 249.431 331.92 252.553 337.137 252.553C341.31 252.553 345.379 250.888 349.343 247.56C353.516 244.022 356.647 240.485 358.734 236.948L361.864 231.954C366.037 225.296 369.48 214.684 372.193 200.12C375.114 185.555 376.991 172.654 377.826 161.419L378.766 144.565C378.766 142.901 378.452 142.069 377.826 142.069L376.574 142.693L345.588 178.897C343.292 181.602 341.727 182.954 340.892 182.954C339.849 182.953 339.327 182.226 339.327 180.77C339.327 178.065 340.058 175.983 341.518 174.527L344.335 171.095C368.123 144.462 381.687 128.336 385.026 122.718C388.156 117.932 392.747 113.771 398.798 110.234C404.64 106.905 411.526 105.241 419.455 105.241ZM510.05 114.916C512.382 114.916 514.378 115.181 516.042 115.711V143.69C511.765 150.704 505.282 158.175 496.591 166.101C479.481 181.706 460.283 193.565 438.999 201.68C438.164 201.888 437.434 202.617 436.808 203.865C433.678 212.396 432.112 219.99 432.112 226.648C432.112 234.138 434.93 237.885 440.563 237.885C441.638 237.885 442.753 237.786 443.908 237.592V249.922C433.929 255.836 425.511 258.795 418.653 258.795C409.055 258.795 404.256 252.137 404.256 238.82C404.256 216.765 412.393 193.669 428.669 169.533C445.154 145.397 464.143 129.065 485.636 120.534C494.608 116.789 502.747 114.916 510.05 114.916ZM719.766 115.228C725.02 115.228 728.575 116.488 730.437 119.003L726.105 142.205C722.733 147.695 717.909 153.476 711.628 159.546C710.376 160.794 707.664 162.98 703.491 166.101C699.317 169.222 696.396 170.782 694.726 170.782C693.683 170.782 693.161 170.262 693.161 169.222L694.1 166.412C702.446 151.64 706.62 140.405 706.62 132.706C706.62 128.545 705.264 126.463 702.551 126.463C696.082 126.463 687.84 132.81 677.824 145.502C668.017 157.986 659.461 172.343 652.158 188.572C644.854 204.593 641.203 217.285 641.203 226.648C641.203 234.139 643.916 237.885 649.341 237.885C658.731 237.885 670.521 231.122 684.71 217.598C693.588 209.414 705.555 196.938 720.618 180.174C722.669 176.65 724.898 173.103 727.305 169.533C741.01 149.468 756.444 134.796 773.61 125.516L775.204 136.655C769.623 142.64 763.046 151.414 755.475 162.979C745.877 177.751 741.078 187.219 741.078 191.38C741.078 192.213 741.286 192.63 741.703 192.63C742.955 192.63 745.668 191.589 749.841 189.509C754.223 187.428 760.379 182.538 768.308 174.839C772.151 171.204 775.691 167.151 778.929 162.681L781.089 177.784C767.725 187.762 753.242 195.729 737.635 201.68C736.8 201.888 736.069 202.617 735.443 203.865C732.313 212.396 730.748 219.99 730.748 226.648C730.748 234.139 733.565 237.885 739.199 237.885C748.172 237.884 759.962 231.122 774.569 217.598C785.628 207.402 801.486 190.549 822.144 167.037C822.77 166.413 823.292 166.101 823.709 166.101C824.127 166.101 824.336 166.517 824.336 167.349C824.336 171.302 822.771 175.152 819.641 178.897C804.2 195.958 790.531 210.211 778.637 221.655C769.873 230.393 759.44 238.82 747.337 246.935C735.235 254.841 725.219 258.795 717.289 258.795C707.691 258.795 702.891 252.137 702.891 238.82C702.891 225.85 705.706 212.52 711.335 198.83C703.215 207.388 695.698 214.997 688.779 221.655C679.389 230.601 668.746 239.028 656.852 246.935C645.167 254.633 635.255 258.483 627.117 258.483C617.519 258.483 612.72 251.096 612.72 236.323C612.72 224.365 615.97 211.43 622.464 197.517C613.867 206.612 605.935 214.659 598.664 221.655C594.831 225.248 591.203 228.56 587.781 231.589H550.511V231.538C552.162 228.041 553.711 224.851 555.157 221.967C556.618 219.054 558.078 216.349 559.539 213.852C560.999 211.356 561.73 210.003 561.73 209.795C564.86 204.177 569.554 196.374 575.814 186.387C582.074 176.192 587.082 167.869 590.838 161.419C594.594 154.761 596.472 150.704 596.473 149.247C596.473 148.207 595.951 147.687 594.908 147.687L590.526 149.247C580.928 156.114 569.45 166.828 556.095 181.393C542.741 195.75 531.786 208.443 523.231 219.471L510.397 235.7C507.684 239.653 505.285 242.878 503.199 245.375C501.112 247.871 498.086 250.264 494.121 252.553C490.365 255.05 486.505 256.299 482.54 256.299C480.271 256.299 478.884 255.796 478.378 254.791V252.499C478.992 250.187 480.901 245.835 484.105 239.445C488.07 231.33 492.035 223.631 495.999 216.349L501.946 205.738L511.101 189.714C499.653 202.072 489.288 212.72 480.002 221.655C479.467 222.188 478.925 222.72 478.378 223.252V215.306C489.284 204.956 504.329 188.867 523.509 167.037C523.875 166.672 524.206 166.415 524.501 166.264L532.62 152.056C535.75 146.854 538.255 142.901 540.133 140.196C542.22 137.283 545.037 133.745 548.584 129.584C552.131 125.215 555.887 121.99 559.852 119.909C564.025 117.829 568.407 116.58 572.998 116.164C574.667 116.164 575.502 116.892 575.502 118.349C575.502 119.597 575.189 120.637 574.563 121.47C569.763 128.96 562.355 141.34 552.339 158.61C542.532 175.88 536.273 187.116 533.56 192.317C532.934 193.566 532.62 194.502 532.62 195.126C532.62 195.542 532.829 195.751 533.247 195.751C533.664 195.75 534.708 195.126 536.377 193.878C540.341 189.3 545.454 183.578 551.714 176.712C558.183 169.846 569.033 159.546 584.265 145.814C595.948 135.123 606.036 127.125 614.527 121.819V161.549C612.711 164.689 610.763 167.975 608.68 171.406C592.821 197.414 584.892 212.812 584.892 217.598C584.892 219.262 585.623 220.094 587.083 220.094C588.126 220.094 589.274 219.782 590.526 219.158C591.987 218.326 593.552 217.286 595.221 216.037C596.89 214.581 598.246 213.332 599.289 212.292C600.541 211.252 602.107 209.899 603.985 208.234C605.863 206.362 607.01 205.217 607.427 204.801C614.766 197.483 624.079 187.466 635.368 174.751C645.339 159.759 657.299 146.679 671.251 135.515C688.362 121.99 704.534 115.228 719.766 115.228ZM256.773 15.0431C275.971 15.0431 291.412 15.5632 303.097 16.6035C306.227 16.6035 307.792 17.9565 307.792 20.6613C307.792 21.2857 307.479 22.4304 306.853 24.0945C299.967 41.364 292.976 54.8879 285.882 64.667C284.838 65.7073 283.691 66.2275 282.439 66.2275C280.561 66.2272 279.622 64.8752 279.622 62.1708C280.665 58.2175 281.187 53.9513 281.187 49.3738C281.187 32.3127 272.632 23.7824 255.522 23.7822H254.269C243.627 23.7823 236.011 26.6955 231.42 32.5213C220.778 45.6297 206.588 68.2048 188.851 100.247C186.765 103.784 184.157 108.258 181.027 113.667H218.801L220.112 122.836C207.839 123.381 194.289 123.655 179.462 123.655H175.705C146.283 176.92 128.756 213.02 123.122 231.954C122.287 234.451 121.869 236.74 121.869 238.82C121.869 245.062 127.399 248.183 138.458 248.183C143.049 248.183 148.058 247.351 153.483 245.687C153.55 245.664 153.616 245.638 153.683 245.615L151.707 256.195C146.429 256.263 141.073 256.299 135.641 256.299C113.94 256.299 96.4123 255.57 83.0577 254.114C80.5537 253.906 79.3014 252.448 79.3014 249.744C79.3015 248.079 79.7185 246.414 80.5531 244.75C92.4472 218.117 114.879 177.648 147.849 123.342L137.404 123.11L139.072 113.98H153.795L191.669 53.4317C194.799 47.8139 196.364 42.7159 196.364 38.1385C196.364 35.0175 195.633 32.3127 194.173 30.024C192.921 27.7355 191.565 26.175 190.104 25.3427L187.913 24.0945C186.035 23.0543 185.096 21.9096 185.096 20.6613C185.096 19.8291 185.409 19.1005 186.035 18.4763C186.869 17.8521 187.705 17.4362 188.539 17.2282L189.791 16.9158C211.284 15.6674 233.611 15.0431 256.773 15.0431ZM235.49 175.776C237.158 175.776 237.993 176.608 237.993 178.272C237.993 178.688 237.784 179.521 237.367 180.77C227.35 206.362 214.622 229.25 199.181 249.432C197.928 252.345 194.799 254.217 189.791 255.049C188.695 255.103 187.596 255.154 186.492 255.204L191.263 222.857C194.026 220.399 196.876 217.711 199.807 214.788C209.614 205.009 219.631 193.15 229.855 179.209C231.107 176.92 232.986 175.776 235.49 175.776ZM490.644 127.4C489.392 127.4 487.931 127.816 486.262 128.648C484.801 129.273 483.654 130.001 482.819 130.833L481.254 132.082C474.785 137.699 466.648 147.999 456.84 162.979C447.242 177.751 442.442 187.219 442.442 191.38C442.442 192.213 442.651 192.63 443.068 192.63C444.32 192.63 447.033 191.589 451.206 189.509C455.588 187.428 461.744 182.538 469.673 174.839C477.811 167.141 484.593 157.569 490.018 146.125C492.522 140.924 493.773 136.347 493.773 132.394C493.773 129.065 492.73 127.4 490.644 127.4ZM808.685 114.916C816.823 114.916 820.892 118.141 820.893 124.591C820.893 133.09 816.645 142.465 808.156 152.72L801.19 115.527C803.779 115.119 806.278 114.916 808.685 114.916Z" fill="url(#paint0_linear_1527_1247)"/>
</g>
<defs>
<filter id="filter0_dn_1527_1247" x="0" y="0" width="860" height="290.662" filterUnits="userSpaceOnUse" color-interpolation-filters="sRGB">
<feFlood flood-opacity="0" result="BackgroundImageFix"/>
<feColorMatrix in="SourceAlpha" type="matrix" values="0 0 0 0 0 0 0 0 0 0 0 0 0 0 0 0 0 0 127 0" result="hardAlpha"/>
<feOffset/>
<feGaussianBlur stdDeviation="16"/>
<feComposite in2="hardAlpha" operator="out"/>
<feColorMatrix type="matrix" values="0 0 0 0 0.968627 0 0 0 0 0.968627 0 0 0 0 0.913725 0 0 0 0.32 0"/>
<feBlend mode="normal" in2="BackgroundImageFix" result="effect1_dropShadow_1527_1247"/>
<feBlend mode="normal" in="SourceGraphic" in2="BackgroundImageFix" result="shape"/>
<feTurbulence type="fractalNoise" baseFrequency="1 1" stitchTiles="stitch" numOctaves="3" result="noise" seed="6592" />
<feColorMatrix in="noise" type="luminanceToAlpha" result="alphaNoise" />
<feComponentTransfer in="alphaNoise" result="coloredNoise1">
<feFuncA type="discrete" tableValues="0 0 0 0 0 0 0 0 0 1 1 1 1 1 1 1 1 1 1 1 1 1 1 1 1 1 1 1 1 1 1 1 1 1 1 1 1 1 1 1 1 1 0 0 0 0 0 0 0 0 0 0 0 0 0 0 0 0 0 0 0 0 0 0 0 0 0 0 0 0 0 0 0 0 0 0 0 0 0 0 0 0 0 0 0 0 0 0 0 0 0 0 0 0 0 0 0 0 0 0 "/>
</feComponentTransfer>
<feComposite operator="in" in2="shape" in="coloredNoise1" result="noise1Clipped" />
<feFlood flood-color="rgba(0, 0, 0, 0.06)" result="color1Flood" />
<feComposite operator="in" in2="noise1Clipped" in="color1Flood" result="color1" />
<feMerge result="effect2_noise_1527_1247">
<feMergeNode in="shape" />
<feMergeNode in="color1" />
</feMerge>
<feBlend mode="normal" in="effect2_noise_1527_1247" in2="effect1_dropShadow_1527_1247" result="effect2_noise_1527_1247"/>
</filter>
<filter id="filter1_n_1527_1247" x="79.3014" y="15.0431" width="745.034" height="245" filterUnits="userSpaceOnUse" color-interpolation-filters="sRGB">
<feFlood flood-opacity="0" result="BackgroundImageFix"/>
<feBlend mode="normal" in="SourceGraphic" in2="BackgroundImageFix" result="shape"/>
<feTurbulence type="fractalNoise" baseFrequency="1 1" stitchTiles="stitch" numOctaves="3" result="noise" seed="6592" />
<feColorMatrix in="noise" type="luminanceToAlpha" result="alphaNoise" />
<feComponentTransfer in="alphaNoise" result="coloredNoise1">
<feFuncA type="discrete" tableValues="0 0 0 0 0 0 0 0 0 1 1 1 1 1 1 1 1 1 1 1 1 1 1 1 1 1 1 1 1 1 1 1 1 1 1 1 1 1 1 1 1 1 0 0 0 0 0 0 0 0 0 0 0 0 0 0 0 0 0 0 0 0 0 0 0 0 0 0 0 0 0 0 0 0 0 0 0 0 0 0 0 0 0 0 0 0 0 0 0 0 0 0 0 0 0 0 0 0 0 0 "/>
</feComponentTransfer>
<feComposite operator="in" in2="shape" in="coloredNoise1" result="noise1Clipped" />
<feFlood flood-color="rgba(0, 0, 0, 0.06)" result="color1Flood" />
<feComposite operator="in" in2="noise1Clipped" in="color1Flood" result="color1" />
<feMerge result="effect1_noise_1527_1247">
<feMergeNode in="shape" />
<feMergeNode in="color1" />
</feMerge>
</filter>
<linearGradient id="paint0_linear_1527_1247" x1="79.3014" y1="137.543" x2="824.336" y2="137.543" gradientUnits="userSpaceOnUse">
<stop stop-color="#E12D27"/>
<stop offset="1" stop-color="#FF8543"/>
</linearGradient>
</defs>
</svg>
