<svg width="20" height="28" viewBox="0 0 20 28" fill="none" xmlns="http://www.w3.org/2000/svg">
<path d="M0 1.16699V23.5671L10 26.8451L20 23.5671V1.16699H0Z" fill="#E12D27"/>
<path d="M3.75 5.2737V9.40983H16.25V5.2737L15.4669 5.12971L14.6888 4.99067L13.9056 6.96688H11.5612L10.7831 4.28063L10 4.1416L9.22189 4.28063L8.43875 6.96688H6.09438L5.31627 4.99067L4.53313 5.12971L3.75 5.2737Z" fill="white"/>
<path d="M4.6875 10.3398H15.3125L16.25 20.5664H3.75L4.6875 10.3398Z" fill="white"/>
<path d="M6.875 12.6016H11.5762C12.6588 12.6016 13.3045 13.092 13.3045 14.0061C13.3045 14.8449 12.6302 15.2878 11.8801 15.3261C12.8108 15.3637 13.4375 15.8534 13.4375 16.7775C13.4375 17.8043 12.5734 18.2572 11.4242 18.2572H6.875V12.6016ZM11.7281 14.7789V13.8556H8.32839V14.7789H11.7281ZM8.32839 16.0606V17.0039H11.8515V16.0606H8.32839Z" fill="#E12D27"/>
</svg>
