<svg width="24" height="24" viewBox="0 0 24 24" fill="none" xmlns="http://www.w3.org/2000/svg">
<path d="M19.7143 6H6.85714C6.51615 6 6.18912 6.13546 5.94801 6.37658C5.70689 6.6177 5.57143 6.94472 5.57143 7.28571V16.9286C5.57143 17.0991 5.5037 17.2626 5.38314 17.3831C5.26258 17.5037 5.09907 17.5714 4.92857 17.5714C4.75808 17.5714 4.59456 17.5037 4.474 17.3831C4.35344 17.2626 4.28571 17.0991 4.28571 16.9286V9.21429C4.28571 9.04379 4.21798 8.88028 4.09743 8.75972C3.97687 8.63916 3.81335 8.57143 3.64286 8.57143C3.47236 8.57143 3.30885 8.63916 3.18829 8.75972C3.06773 8.88028 3 9.04379 3 9.21429V16.9374C3.00234 17.4474 3.20656 17.9356 3.56798 18.2954C3.92941 18.6552 4.41861 18.8571 4.92857 18.8571H19.0714C19.5829 18.8571 20.0735 18.654 20.4351 18.2923C20.7968 17.9306 21 17.4401 21 16.9286V7.28571C21 6.94472 20.8645 6.6177 20.6234 6.37658C20.3823 6.13546 20.0553 6 19.7143 6ZM16.5 14.3571H10.0714C9.90093 14.3571 9.73742 14.2894 9.61686 14.1689C9.4963 14.0483 9.42857 13.8848 9.42857 13.7143C9.42857 13.5438 9.4963 13.3803 9.61686 13.2597C9.73742 13.1392 9.90093 13.0714 10.0714 13.0714H16.5C16.6705 13.0714 16.834 13.1392 16.9546 13.2597C17.0751 13.3803 17.1429 13.5438 17.1429 13.7143C17.1429 13.8848 17.0751 14.0483 16.9546 14.1689C16.834 14.2894 16.6705 14.3571 16.5 14.3571ZM16.5 11.7857H10.0714C9.90093 11.7857 9.73742 11.718 9.61686 11.5974C9.4963 11.4769 9.42857 11.3134 9.42857 11.1429C9.42857 10.9724 9.4963 10.8088 9.61686 10.6883C9.73742 10.5677 9.90093 10.5 10.0714 10.5H16.5C16.6705 10.5 16.834 10.5677 16.9546 10.6883C17.0751 10.8088 17.1429 10.9724 17.1429 11.1429C17.1429 11.3134 17.0751 11.4769 16.9546 11.5974C16.834 11.718 16.6705 11.7857 16.5 11.7857Z" fill="#EAE9E3"/>
</svg>
