<svg width="24" height="24" viewBox="0 0 24 24" fill="none" xmlns="http://www.w3.org/2000/svg">
<path d="M10.3333 7H7.83333C7.3731 7 7 7.3731 7 7.83333V16.1667C7 16.6269 7.3731 17 7.83333 17H10.3333C10.7936 17 11.1667 16.6269 11.1667 16.1667V7.83333C11.1667 7.3731 10.7936 7 10.3333 7Z" fill="white"/>
<path d="M16.1668 7H13.6668C13.2065 7 12.8334 7.3731 12.8334 7.83333V16.1667C12.8334 16.6269 13.2065 17 13.6668 17H16.1668C16.627 17 17.0001 16.6269 17.0001 16.1667V7.83333C17.0001 7.3731 16.627 7 16.1668 7Z" fill="white"/>
</svg>
