<svg width="24" height="24" viewBox="0 0 24 24" fill="none" xmlns="http://www.w3.org/2000/svg">
<path d="M9.88125 11.1187C9.29375 10.5312 9 9.825 9 9C9 8.175 9.29375 7.46875 9.88125 6.88125C10.4688 6.29375 11.175 6 12 6C12.825 6 13.5313 6.29375 14.1188 6.88125C14.7063 7.46875 15 8.175 15 9C15 9.825 14.7063 10.5312 14.1188 11.1187C13.5313 11.7062 12.825 12 12 12C11.175 12 10.4688 11.7062 9.88125 11.1187ZM6 18V15.9C6 15.475 6.1095 15.0845 6.3285 14.7285C6.5475 14.3725 6.838 14.1005 7.2 13.9125C7.975 13.525 8.7625 13.2345 9.5625 13.041C10.3625 12.8475 11.175 12.7505 12 12.75C12.825 12.7495 13.6375 12.8465 14.4375 13.041C15.2375 13.2355 16.025 13.526 16.8 13.9125C17.1625 14.1 17.4533 14.372 17.6723 14.7285C17.8913 15.085 18.0005 15.4755 18 15.9V18H6Z" fill="#F7F7E9"/>
</svg>
