<svg width="24" height="24" viewBox="0 0 24 24" fill="none" xmlns="http://www.w3.org/2000/svg">
<path d="M8.40608 19C8.1725 18.9996 7.94306 18.9383 7.74032 18.8223C7.2838 18.5636 7 18.0615 7 17.5163V6.48376C7 5.93707 7.2838 5.43642 7.74032 5.17773C7.94789 5.05844 8.18369 4.99709 8.42307 5.00011C8.66245 5.00312 8.89663 5.07038 9.10113 5.19485L18.5302 10.839C18.7267 10.9622 18.8887 11.1333 19.001 11.3362C19.1132 11.5392 19.1722 11.7673 19.1722 11.9993C19.1722 12.2312 19.1132 12.4594 19.001 12.6623C18.8887 12.8653 18.7267 13.0364 18.5302 13.1596L9.09961 18.8052C8.89033 18.9317 8.65063 18.9991 8.40608 19Z" fill="#F8F3EF"/>
</svg>
