<svg width="24" height="24" viewBox="0 0 24 24" fill="none" xmlns="http://www.w3.org/2000/svg">
<path d="M8.70521 18C8.505 17.9996 8.30834 17.9471 8.13456 17.8477C7.74326 17.626 7.5 17.1955 7.5 16.7283V7.27179C7.5 6.80321 7.74326 6.37408 8.13456 6.15234C8.31248 6.05009 8.51459 5.99751 8.71977 6.00009C8.92496 6.00267 9.12569 6.06032 9.30097 6.16701L17.383 11.0048C17.5514 11.1104 17.6903 11.2571 17.7865 11.4311C17.8828 11.605 17.9333 11.8006 17.9333 11.9994C17.9333 12.1982 17.8828 12.3937 17.7865 12.5677C17.6903 12.7417 17.5514 12.8883 17.383 12.9939L9.29967 17.833C9.12028 17.9415 8.91482 17.9992 8.70521 18Z" fill="white"/>
</svg>
