<svg width="32" height="32" viewBox="0 0 32 32" fill="none" xmlns="http://www.w3.org/2000/svg">
<g clip-path="url(#clip0_1527_920)">
<g filter="url(#filter0_d_1527_920)">
<path fill-rule="evenodd" clip-rule="evenodd" d="M20.1066 7.34091C21.4527 6.90571 23.0058 6.91425 24.2751 7.56491C27.2063 9.07105 28.4757 12.9537 27.2959 17.0668C26.7669 18.9121 25.8346 20.7041 23.8634 22.511C21.8922 24.3201 19.1573 25.3868 17.8901 25.3868C17.7834 25.3885 17.6775 25.3691 17.5784 25.3298C17.4792 25.2905 17.3888 25.232 17.3123 25.1577C17.2358 25.0834 17.1747 24.9947 17.1326 24.8967C17.0904 24.7987 17.068 24.6934 17.0666 24.5868C17.0666 24.1452 17.4421 23.7868 17.8901 23.7868C19.3386 23.7868 20.6335 22.9974 22.1674 21.8369C23.3407 20.9473 24.2581 19.8102 24.7637 18.8204C25.7343 16.926 25.7663 14.255 24.1983 13.5446C23.8343 13.9578 23.3857 14.2879 22.8829 14.5124C22.3801 14.7369 21.8348 14.8507 21.2842 14.846C18.7242 14.846 17.2159 12.7873 17.2821 10.9228C17.3439 9.14145 18.4767 7.87211 20.1066 7.34091ZM7.3066 7.34091C8.65273 6.90571 10.2058 6.91425 11.4751 7.56491C14.4063 9.07105 15.6757 12.9537 14.4959 17.0668C13.9669 18.9121 13.0346 20.7041 11.0634 22.511C9.0922 24.3201 6.35727 25.3868 5.09007 25.3868C4.98343 25.3885 4.8775 25.3691 4.77836 25.3298C4.67922 25.2905 4.58881 25.232 4.51232 25.1577C4.43582 25.0834 4.37474 24.9947 4.33257 24.8967C4.29041 24.7987 4.26799 24.6934 4.2666 24.5868C4.2666 24.1452 4.64207 23.7868 5.09007 23.7868C6.5386 23.7868 7.83353 22.9974 9.3674 21.8369C10.5407 20.9473 11.4581 19.8102 11.9637 18.8204C12.9343 16.926 12.9663 14.255 11.3983 13.5446C10.6453 14.3681 9.6618 14.846 8.4842 14.846C5.9242 14.846 4.41594 12.7873 4.48207 10.9228C4.54394 9.14145 5.67673 7.87211 7.3066 7.34091Z" fill="#F7F7E9"/>
</g>
</g>
<defs>
<filter id="filter0_d_1527_920" x="-7.7334" y="-2.95898" width="47.4673" height="42.3457" filterUnits="userSpaceOnUse" color-interpolation-filters="sRGB">
<feFlood flood-opacity="0" result="BackgroundImageFix"/>
<feColorMatrix in="SourceAlpha" type="matrix" values="0 0 0 0 0 0 0 0 0 0 0 0 0 0 0 0 0 0 127 0" result="hardAlpha"/>
<feOffset dy="2"/>
<feGaussianBlur stdDeviation="6"/>
<feComposite in2="hardAlpha" operator="out"/>
<feColorMatrix type="matrix" values="0 0 0 0 1 0 0 0 0 1 0 0 0 0 1 0 0 0 0.84 0"/>
<feBlend mode="normal" in2="BackgroundImageFix" result="effect1_dropShadow_1527_920"/>
<feBlend mode="normal" in="SourceGraphic" in2="effect1_dropShadow_1527_920" result="shape"/>
</filter>
<clipPath id="clip0_1527_920">
<rect width="32" height="32" fill="white"/>
</clipPath>
</defs>
</svg>
