<svg width="56" height="24" viewBox="0 0 56 24" fill="none" xmlns="http://www.w3.org/2000/svg">
<path d="M12.1461 8C12.3583 8 12.5618 8.08429 12.7118 8.23431C12.8618 8.38434 12.9461 8.58783 12.9461 8.8V10.6144L14.5173 9.7072C14.6083 9.65384 14.709 9.61901 14.8135 9.60472C14.9181 9.59043 15.0244 9.59695 15.1264 9.62392C15.2284 9.65089 15.324 9.69776 15.4079 9.76185C15.4917 9.82594 15.562 9.90597 15.6147 9.99734C15.6675 10.0887 15.7016 10.1896 15.7152 10.2942C15.7288 10.3989 15.7216 10.5051 15.694 10.607C15.6663 10.7088 15.6188 10.8041 15.5542 10.8875C15.4895 10.9709 15.409 11.0407 15.3173 11.0928L13.7461 12L15.3173 12.9072C15.4996 13.014 15.6321 13.1886 15.6861 13.3929C15.7401 13.5971 15.7112 13.8144 15.6055 13.9974C15.4999 14.1803 15.3262 14.314 15.1223 14.3694C14.9184 14.4247 14.701 14.3972 14.5173 14.2928L12.9461 13.3856V15.2C12.9461 15.4122 12.8618 15.6157 12.7118 15.7657C12.5618 15.9157 12.3583 16 12.1461 16C11.9339 16 11.7305 15.9157 11.5804 15.7657C11.4304 15.6157 11.3461 15.4122 11.3461 15.2V13.3856L9.77491 14.2928C9.68389 14.3462 9.58322 14.381 9.47869 14.3953C9.37416 14.4096 9.26783 14.403 9.16583 14.3761C9.06383 14.3491 8.96817 14.3022 8.88436 14.2381C8.80056 14.1741 8.73025 14.094 8.6775 14.0027C8.62474 13.9113 8.59058 13.8104 8.57699 13.7058C8.56339 13.6011 8.57062 13.4949 8.59826 13.393C8.6259 13.2912 8.67341 13.1959 8.73805 13.1125C8.8027 13.0291 8.88319 12.9593 8.97491 12.9072L10.5461 12L8.97491 11.0928C8.88319 11.0407 8.8027 10.9709 8.73805 10.8875C8.67341 10.8041 8.6259 10.7088 8.59826 10.607C8.57062 10.5051 8.56339 10.3989 8.57699 10.2942C8.59058 10.1896 8.62474 10.0887 8.6775 9.99734C8.73025 9.90597 8.80056 9.82594 8.88436 9.76185C8.96817 9.69776 9.06383 9.65089 9.16583 9.62392C9.26783 9.59695 9.37416 9.59043 9.47869 9.60472C9.58322 9.61901 9.68389 9.65384 9.77491 9.7072L11.3461 10.6144V8.8C11.3461 8.58783 11.4304 8.38434 11.5804 8.23431C11.7305 8.08429 11.9339 8 12.1461 8Z" fill="#E12D27"/>
<path d="M28.1461 8C28.3583 8 28.5618 8.08429 28.7118 8.23431C28.8618 8.38434 28.9461 8.58783 28.9461 8.8V10.6144L30.5173 9.7072C30.6083 9.65384 30.709 9.61901 30.8135 9.60472C30.9181 9.59043 31.0244 9.59695 31.1264 9.62392C31.2284 9.65089 31.324 9.69776 31.4079 9.76185C31.4917 9.82594 31.562 9.90597 31.6147 9.99734C31.6675 10.0887 31.7016 10.1896 31.7152 10.2942C31.7288 10.3989 31.7216 10.5051 31.694 10.607C31.6663 10.7088 31.6188 10.8041 31.5542 10.8875C31.4895 10.9709 31.409 11.0407 31.3173 11.0928L29.7461 12L31.3173 12.9072C31.4996 13.014 31.6321 13.1886 31.6861 13.3929C31.7401 13.5971 31.7112 13.8144 31.6055 13.9974C31.4999 14.1803 31.3262 14.314 31.1223 14.3694C30.9184 14.4247 30.701 14.3972 30.5173 14.2928L28.9461 13.3856V15.2C28.9461 15.4122 28.8618 15.6157 28.7118 15.7657C28.5618 15.9157 28.3583 16 28.1461 16C27.9339 16 27.7305 15.9157 27.5804 15.7657C27.4304 15.6157 27.3461 15.4122 27.3461 15.2V13.3856L25.7749 14.2928C25.6839 14.3462 25.5832 14.381 25.4787 14.3953C25.3742 14.4096 25.2678 14.403 25.1658 14.3761C25.0638 14.3491 24.9682 14.3022 24.8844 14.2381C24.8006 14.1741 24.7303 14.094 24.6775 14.0027C24.6247 13.9113 24.5906 13.8104 24.577 13.7058C24.5634 13.6011 24.5706 13.4949 24.5983 13.393C24.6259 13.2912 24.6734 13.1959 24.7381 13.1125C24.8027 13.0291 24.8832 12.9593 24.9749 12.9072L26.5461 12L24.9749 11.0928C24.8832 11.0407 24.8027 10.9709 24.7381 10.8875C24.6734 10.8041 24.6259 10.7088 24.5983 10.607C24.5706 10.5051 24.5634 10.3989 24.577 10.2942C24.5906 10.1896 24.6247 10.0887 24.6775 9.99734C24.7303 9.90597 24.8006 9.82594 24.8844 9.76185C24.9682 9.69776 25.0638 9.65089 25.1658 9.62392C25.2678 9.59695 25.3742 9.59043 25.4787 9.60472C25.5832 9.61901 25.6839 9.65384 25.7749 9.7072L27.3461 10.6144V8.8C27.3461 8.58783 27.4304 8.38434 27.5804 8.23431C27.7305 8.08429 27.9339 8 28.1461 8Z" fill="#E12D27"/>
<path d="M44.1461 8C44.3583 8 44.5618 8.08429 44.7118 8.23431C44.8618 8.38434 44.9461 8.58783 44.9461 8.8V10.6144L46.5173 9.7072C46.6083 9.65384 46.709 9.61901 46.8135 9.60472C46.9181 9.59043 47.0244 9.59695 47.1264 9.62392C47.2284 9.65089 47.324 9.69776 47.4079 9.76185C47.4917 9.82594 47.562 9.90597 47.6147 9.99734C47.6675 10.0887 47.7016 10.1896 47.7152 10.2942C47.7288 10.3989 47.7216 10.5051 47.694 10.607C47.6663 10.7088 47.6188 10.8041 47.5542 10.8875C47.4895 10.9709 47.409 11.0407 47.3173 11.0928L45.7461 12L47.3173 12.9072C47.4996 13.014 47.6321 13.1886 47.6861 13.3929C47.7401 13.5971 47.7112 13.8144 47.6055 13.9974C47.4999 14.1803 47.3262 14.314 47.1223 14.3694C46.9184 14.4247 46.701 14.3972 46.5173 14.2928L44.9461 13.3856V15.2C44.9461 15.4122 44.8618 15.6157 44.7118 15.7657C44.5618 15.9157 44.3583 16 44.1461 16C43.9339 16 43.7305 15.9157 43.5804 15.7657C43.4304 15.6157 43.3461 15.4122 43.3461 15.2V13.3856L41.7749 14.2928C41.6839 14.3462 41.5832 14.381 41.4787 14.3953C41.3742 14.4096 41.2678 14.403 41.1658 14.3761C41.0638 14.3491 40.9682 14.3022 40.8844 14.2381C40.8006 14.1741 40.7303 14.094 40.6775 14.0027C40.6247 13.9113 40.5906 13.8104 40.577 13.7058C40.5634 13.6011 40.5706 13.4949 40.5983 13.393C40.6259 13.2912 40.6734 13.1959 40.7381 13.1125C40.8027 13.0291 40.8832 12.9593 40.9749 12.9072L42.5461 12L40.9749 11.0928C40.8832 11.0407 40.8027 10.9709 40.7381 10.8875C40.6734 10.8041 40.6259 10.7088 40.5983 10.607C40.5706 10.5051 40.5634 10.3989 40.577 10.2942C40.5906 10.1896 40.6247 10.0887 40.6775 9.99734C40.7303 9.90597 40.8006 9.82594 40.8844 9.76185C40.9682 9.69776 41.0638 9.65089 41.1658 9.62392C41.2678 9.59695 41.3742 9.59043 41.4787 9.60472C41.5832 9.61901 41.6839 9.65384 41.7749 9.7072L43.3461 10.6144V8.8C43.3461 8.58783 43.4304 8.38434 43.5804 8.23431C43.7305 8.08429 43.9339 8 44.1461 8Z" fill="#E12D27"/>
</svg>
