<svg width="40" height="40" viewBox="0 0 40 40" fill="none" xmlns="http://www.w3.org/2000/svg">
<path d="M31.57 9.15516C29.4123 8.14561 27.1051 7.41191 24.6931 6.99414C24.3968 7.52971 24.0508 8.25006 23.8122 8.8231C21.2481 8.4375 18.7076 8.4375 16.1907 8.8231C15.9521 8.25006 15.5982 7.52971 15.2993 6.99414C12.8846 7.41191 10.5748 8.14831 8.4171 9.1605C4.06494 15.7372 2.88515 22.1505 3.47505 28.4727C6.36162 30.6284 9.15906 31.9378 11.9093 32.7947C12.5883 31.8602 13.194 30.8667 13.7157 29.8197C12.722 29.4421 11.7703 28.9762 10.8711 28.4353C11.1097 28.2585 11.343 28.0738 11.5685 27.8836C17.0532 30.449 23.0125 30.449 28.4317 27.8836C28.6598 28.0738 28.8932 28.2585 29.1291 28.4353C28.2272 28.9788 27.2729 29.4448 26.2793 29.8224C26.801 30.8667 27.404 31.8629 28.0857 32.7974C30.8385 31.9405 33.6386 30.6311 36.5252 28.4727C37.2173 21.1436 35.3428 14.7892 31.57 9.15516ZM14.4629 24.5846C12.8164 24.5846 11.4662 23.0475 11.4662 21.1758C11.4662 19.304 12.7876 17.7643 14.4629 17.7643C16.1382 17.7643 17.4884 19.3013 17.4596 21.1758C17.4622 23.0475 16.1382 24.5846 14.4629 24.5846ZM25.5373 24.5846C23.8908 24.5846 22.5406 23.0475 22.5406 21.1758C22.5406 19.304 23.862 17.7643 25.5373 17.7643C27.2126 17.7643 28.5628 19.3013 28.534 21.1758C28.534 23.0475 27.2126 24.5846 25.5373 24.5846Z" fill="#121214"/>
</svg>
