<svg width="40" height="40" viewBox="0 0 40 40" fill="none" xmlns="http://www.w3.org/2000/svg">
<path d="M32.4556 7.21308C28.4979 8.85224 11.5279 15.8814 6.83916 17.7972C3.69465 19.0243 5.53549 20.1749 5.53549 20.1749C5.53549 20.1749 8.21971 21.0951 10.5208 21.7854C12.8217 22.4757 14.0488 21.7089 14.0488 21.7089L24.8629 14.4227C28.6976 11.815 27.7774 13.9624 26.8568 14.883C24.8629 16.8772 21.5649 20.0214 18.8038 22.5526C17.5767 23.6262 18.1901 24.5465 18.7273 25.0068C20.7212 26.6942 26.1669 30.1456 26.4734 30.3756C28.0936 31.5226 31.2806 33.1737 31.7653 29.6853L33.6827 17.6441C34.2964 13.5793 34.9098 9.82107 34.9864 8.74738C35.2167 6.13939 32.4556 7.21308 32.4556 7.21308Z" fill="#121214"/>
</svg>
