<svg width="40" height="40" viewBox="0 0 40 40" fill="none" xmlns="http://www.w3.org/2000/svg">
<path d="M16.7415 18.9543C16.6765 18.3744 16.2336 17.9505 15.7523 18.0035C15.271 18.0565 14.9315 18.5687 14.9935 19.1486C15.0555 19.7285 15.5013 20.1524 15.9826 20.0994C16.4639 20.0464 16.8035 19.5342 16.7415 18.9543Z" fill="#121214"/>
<path d="M18.5601 16.843C17.819 16.1012 16.7796 15.6655 15.7314 15.7421C13.5227 15.8863 12.0877 18.0852 12.256 20.1812C12.3269 21.4411 12.9292 22.5773 13.818 23.3044C13.3013 22.701 12.9292 21.8414 12.82 20.8611C12.5985 18.8594 13.5611 17.1109 14.9696 16.9578C16.378 16.8018 17.6979 18.3001 17.9193 20.3018C18.1231 22.1299 17.3347 23.7489 16.1241 24.1316C16.6379 24.1198 17.1723 23.9873 17.7038 23.7106C19.1241 22.9629 19.9331 21.3056 19.8268 19.7219C19.7648 18.6534 19.3219 17.5995 18.5571 16.843H18.5601Z" fill="#121214"/>
<path d="M23.5887 25.8534C23.0159 25.5354 21.9116 25.1704 21.4864 25.6238C20.9638 26.1801 21.5218 27.9287 22.6881 28.541C23.8427 29.1474 24.6901 28.8942 25.0444 28.2024C25.4135 27.4812 24.4893 26.3538 23.5887 25.8534Z" fill="#121214"/>
<path d="M20.7835 7.5542C20.8278 7.8839 20.8278 8.22242 20.7747 8.57272C20.692 9.03194 20.0365 8.97601 20.0276 8.51385C20.0335 7.78676 19.7944 7.07438 19.3574 6.49153C18.0552 4.77536 15.3712 3.78922 13.257 3.66559C12.882 3.65381 12.2797 3.65087 11.9814 3.85104C11.9962 3.92758 12.0671 4.0306 12.1261 4.10714C12.1675 4.16307 12.256 4.25727 12.3033 4.3132C12.8407 4.89605 13.4342 5.44063 14.0454 5.94989C14.6684 6.45915 15.3121 6.95958 15.9765 7.41291C16.3013 7.63368 16.6497 7.85741 16.9893 8.04875C17.1162 8.11939 17.2521 8.19299 17.382 8.26069L17.5237 8.33428C17.7068 8.42848 17.7806 8.6522 17.6861 8.83765C17.5946 9.01428 17.382 9.08787 17.2019 9.01133C17.1842 9.0025 17.1635 8.99367 17.1399 8.98484C16.7088 8.95835 16.2688 9.06138 15.8909 9.27038C15.3505 9.57652 14.9755 10.1064 14.757 10.6833C14.7422 10.7275 14.7068 10.8188 14.692 10.8629C14.6714 10.9247 14.63 11.0778 14.6094 11.1396C14.5798 11.2456 14.5562 11.3633 14.5326 11.4723C14.4293 12.008 14.3909 12.5497 14.3938 13.0972C14.3938 13.109 14.3938 13.1207 14.3938 13.1354C14.3938 13.1413 14.3938 13.1502 14.3938 13.1561C14.3938 13.1678 14.3938 13.1796 14.3938 13.1914C15.1379 13.3857 15.9647 13.2856 16.6113 12.8558C17.3908 12.3318 17.8574 11.4899 18.1763 10.6186C18.321 10.2624 18.8318 10.4243 18.758 10.7893C18.7727 10.9306 18.7993 11.0807 18.8288 11.2191C19.006 11.9874 19.3249 12.8558 20.004 13.3091C20.0394 13.3297 20.0837 13.3533 20.1162 13.3739C20.1546 13.3915 20.1959 13.4122 20.2343 13.4298C20.4469 13.5181 20.6802 13.5593 20.9134 13.5593C21.2501 13.5623 21.3741 13.4033 21.439 13.0913C21.5128 12.7116 21.4715 12.2818 21.4184 11.8873C21.3623 11.4988 21.2766 11.1102 21.1851 10.7246L21.1556 10.598V10.5892C21.0788 10.2565 21.5276 10.0887 21.69 10.389C22.1565 11.3162 22.7205 12.9941 22.0739 13.945C21.7963 14.3541 21.3091 14.5278 20.8337 14.5013C19.3692 14.4689 18.5306 13.3062 18.256 12.0168C18.0847 12.3348 17.8839 12.635 17.6477 12.9058C16.7442 13.9567 15.3505 14.3424 14.0159 13.995C13.9391 13.9744 13.8564 13.9508 13.7797 13.9214C13.635 13.8625 13.5434 13.736 13.5198 13.5917C13.5169 13.5947 13.5139 13.5976 13.511 13.5976C13.4814 13.5917 13.4903 13.3709 13.5316 12.9353C13.5582 12.4054 13.6232 11.8726 13.7413 11.3545C13.9155 10.6156 14.2137 9.89444 14.7334 9.32631C15.0966 8.92008 15.5808 8.62571 16.1035 8.47558C16.0031 8.41965 15.9027 8.36078 15.8023 8.30485C10.2954 10.1005 6.19705 15.1195 5.71281 20.9068C6.0819 21.0245 6.43918 21.1776 6.78169 21.3689C7.29842 21.6574 7.78857 22.0107 8.19605 22.4405L8.25806 22.5082C8.43522 22.7054 8.42046 23.0086 8.22262 23.1852C7.99231 23.3972 7.60255 23.3206 7.46968 23.041C6.90276 22.361 6.05237 21.8517 5.19903 21.6221C4.31026 21.3778 3.35358 21.4367 2.47957 21.7134C2.34079 21.7575 2.20792 21.8105 2.09276 21.8753C1.9097 21.9783 1.72367 22.1166 1.67643 22.3257C1.57604 22.8702 2.26107 23.5385 2.65378 23.8799C3.23252 24.3833 3.89983 24.7984 4.57601 25.1604C4.99234 25.3871 5.43525 25.6138 5.86044 25.8257C6.20887 26.0023 6.66063 26.2143 7.07992 26.4115C7.04744 26.2525 7.02086 26.0965 6.99724 25.9376L5.82796 25.2723C6.1882 26.1819 6.54843 27.0915 6.90866 28.0011C8.42932 31.404 11.2492 34.2064 14.7924 35.637C24.4242 39.6051 35.2932 32.6551 35.3316 22.1814C35.3729 14.0215 28.5787 7.70728 20.7894 7.55715L20.7835 7.5542ZM18.1556 24.5069C17.0277 25.1751 15.5897 25.2605 14.382 24.7542C12.569 24.0212 11.4057 22.1461 11.3082 20.2356C11.1281 17.6511 12.9647 15.0165 15.6783 14.8752C16.9656 14.7927 18.256 15.3638 19.1211 16.297C19.9833 17.2066 20.4794 18.4311 20.5591 19.6763C20.692 21.5544 19.8239 23.5443 18.1556 24.5069ZM24.4892 29.4788C23.0217 29.8438 21.3357 29.1992 20.6329 26.8943C19.9302 24.5893 20.3701 23.0174 21.0552 22.9321C21.0552 22.9321 22.0414 22.9939 22.5463 22.9968C23.8426 23.0056 25.5286 22.8025 26.001 22.7613C26.4764 22.7172 26.9724 22.6318 27.1673 23.6003C27.498 25.2487 25.9567 29.1138 24.4892 29.4788ZM33.1761 18.2457C33.4153 19.8176 33.0639 21.6015 31.8326 22.6995C31.1889 23.2706 30.2884 23.5591 29.4291 23.4266C27.4478 23.1234 26.1929 21.1747 25.9301 19.3231C25.6555 17.4833 26.2904 15.2637 28.0886 14.4101C28.8622 14.0421 29.7952 14.0568 30.5718 14.4101C32.0659 15.093 32.934 16.6826 33.1761 18.2486V18.2457Z" fill="#121214"/>
<path d="M27.0728 16.5072C27.0256 16.6073 26.9842 16.7073 26.9459 16.8104C27.3327 16.2422 27.876 15.8654 28.5079 15.7977C29.9045 15.6447 31.2066 17.0488 31.4133 18.9357C31.6141 20.7461 30.7342 22.3445 29.4291 22.6036C30.0964 22.7301 30.7933 22.5506 31.3248 22.1061C32.3966 21.22 32.7568 19.6775 32.559 18.3382C32.3641 16.9899 31.5787 15.6064 30.2883 15.0618C28.9419 14.4966 27.6486 15.2414 27.0728 16.5072Z" fill="#121214"/>
<path d="M28.3257 18.755C28.7112 18.6976 28.9592 18.2209 28.8796 17.6903C28.8001 17.1597 28.4231 16.7761 28.0377 16.8335C27.6522 16.8909 27.4042 17.3676 27.4837 17.8982C27.5633 18.4289 27.9403 18.8124 28.3257 18.755Z" fill="#121214"/>
<path d="M37.7232 16.1372C37.4427 16.1313 37.109 16.1784 36.8197 16.2344C36.6248 16.2756 36.4358 16.3344 36.2528 16.4139C36.1553 16.4581 36.0579 16.5052 35.9663 16.5582C36.3207 17.1292 36.3059 20.4998 36.3029 20.8972C36.3029 20.9119 36.3029 20.9266 36.3059 20.9413C36.5598 20.5881 36.8167 20.2348 37.0411 19.861C37.2596 19.5107 37.4545 19.1221 37.6376 18.7512C37.9033 18.1978 38.172 17.6238 38.2931 17.0292C38.3374 16.7789 38.364 16.5493 38.2695 16.3492C38.172 16.1814 37.9683 16.149 37.7262 16.1372H37.7232Z" fill="#121214"/>
</svg>
