<svg width="40" height="40" viewBox="0 0 40 40" fill="none" xmlns="http://www.w3.org/2000/svg">
<path d="M18.7888 26.1684C19.5973 26.3032 21.6383 26.2882 22.7013 26.1385C24.1185 25.9438 24.8072 25.7542 25.7703 25.2901C27.3423 24.5366 28.9841 23.1443 29.8574 21.8318C31.619 19.182 31.9533 15.3444 30.7007 12.1656C29.533 9.2113 27.4071 7.00558 24.6475 5.89773C24.1035 5.67816 23.7442 5.46856 23.5047 5.21405C23.34 5.0394 23.3351 5.03437 23.345 4.58027C23.355 4.20601 23.335 4.08123 23.2502 3.90657C23.1254 3.65207 22.7961 3.33269 22.6514 3.33269C22.5266 3.33269 22.5266 3.35767 22.6563 3.7519C22.7511 4.04134 22.7562 4.09624 22.6963 4.28587C22.6065 4.56033 22.4218 4.70504 22.2372 4.63519C22.0176 4.55036 21.9028 4.40065 21.9028 4.19605C21.9028 4.04136 21.9377 3.97646 22.1274 3.8018C22.2521 3.68703 22.3519 3.57227 22.3519 3.53732C22.3519 3.44749 22.1174 3.47243 21.8429 3.5922L21.5884 3.70199L21.4287 3.51734C21.3439 3.41753 21.1692 3.15307 21.0395 2.92352C20.775 2.45444 20.7451 2.2548 20.9097 1.99032C21.0445 1.76576 20.9746 1.71586 20.7151 1.84061C20.4307 1.98034 20.251 2.22986 20.2161 2.51431L20.1911 2.74384L20.0714 2.49934C19.9117 2.18496 19.5923 1.86055 19.2879 1.71083C19.0533 1.59108 18.8587 1.55118 18.8587 1.61605C18.8588 1.63107 18.9586 1.76079 19.0833 1.90548C19.4825 2.37457 19.6472 2.89356 19.5075 3.25286C19.4326 3.45746 19.0983 3.7918 18.8687 3.89161C18.6491 3.99142 18.5793 3.97646 18.4695 3.82178C18.3747 3.69203 18.0403 3.5323 17.8607 3.5323C17.686 3.5323 17.666 3.62213 17.8108 3.75687C17.9355 3.86665 17.9405 4.09123 17.8257 4.19103C17.686 4.3108 17.4265 4.43055 17.2968 4.43056C17.0922 4.43056 16.663 4.18105 16.5083 3.96647C16.2987 3.67703 16.2438 3.43252 16.3087 3.06324C16.3835 2.64406 16.3137 2.59415 16.0592 2.87859C15.5901 3.40257 15.4004 4.0663 15.3954 5.18413C15.3904 5.93765 15.3854 5.96759 15.2557 6.16221C15.1858 6.272 15.0062 6.43667 14.8565 6.52649C14.083 7.00556 13.7936 7.2152 13.3644 7.58947C13.1049 7.819 12.8903 8.04851 12.8853 8.09844C12.8753 8.16831 12.9502 8.25315 13.1199 8.37291C13.8035 8.84699 14.0231 9.72533 13.7087 10.6835C13.5839 11.0727 13.5141 11.2025 13.2097 11.6566C12.5959 12.5648 11.5329 13.3483 10.6297 13.5628C10.3801 13.6227 10.0009 13.6128 9.59168 13.5329C9.43699 13.503 9.43701 13.503 9.37214 13.7924C9.33721 13.9571 9.30723 14.3114 9.30723 14.5859C9.30224 15.04 9.31725 15.1148 9.44699 15.3843C9.64661 15.7935 10.45 16.582 11.3732 17.2806C12.1717 17.8845 12.4711 18.139 12.4711 18.2189C12.4711 18.2488 12.3513 18.2588 12.1567 18.2438C11.5978 18.1989 10.7544 17.7397 9.87614 17.0062C9.14257 16.3974 8.58864 16.063 7.25125 15.4442C6.36298 15.03 5.83896 14.8404 5.44972 14.7855L5.18524 14.7506V14.9202C5.19023 15.3244 5.86394 16.6269 6.55261 17.5401C7.42591 18.7079 8.72337 19.7958 10.0059 20.4445C10.5099 20.699 10.5948 20.7739 10.999 21.3477C11.498 22.0564 11.8274 22.4406 12.3464 22.9397C14.048 24.5665 16.4833 25.7892 18.7888 26.1684ZM30.4762 9.6604C30.571 9.64044 30.8954 9.00169 31.0551 8.52262C31.4144 7.42476 31.4992 6.08736 31.2846 4.87472C31.1798 4.30086 30.7407 3.18309 30.6159 3.18298C30.581 3.18298 30.4812 3.43253 30.3864 3.73693C30.0171 4.95955 29.568 5.74303 28.4701 7.10038L28.3753 7.21515L28.8793 7.7691C29.1537 8.07351 29.6129 8.62742 29.8923 8.9967C30.2017 9.40586 30.4312 9.67032 30.4762 9.6604ZM9.86118 12.2754C10.1506 12.4151 10.2055 12.4251 10.5648 12.4051C10.8842 12.3852 11.0089 12.3552 11.2734 12.2105C11.6527 12.0109 12.2915 11.4071 12.4961 11.0478C12.8354 10.4639 12.9602 9.82511 12.8055 9.45582C12.7007 9.2113 12.3763 8.95179 11.8872 8.72223C10.9141 8.26313 10.5698 8.06351 9.951 7.59941C8.88806 6.79597 8.15446 5.96259 7.51071 4.81482C7.43586 4.68508 7.35603 4.58027 7.33108 4.58027C7.30613 4.58027 7.26119 4.66512 7.23624 4.76492C7.07156 5.38871 7.02168 6.5764 7.13147 7.4497C7.19135 7.95872 7.37098 8.74722 7.53566 9.22629C7.69535 9.70036 8.13952 10.5437 8.43894 10.9429C8.85314 11.4919 9.49689 12.0957 9.86118 12.2754ZM32.118 17.2457C32.0881 17.62 32.0931 17.7098 32.143 17.6948C32.2378 17.6598 32.8316 16.6418 33.3057 15.6837C33.7299 14.8354 33.9644 14.1966 34.3836 12.7544C34.6531 11.8262 34.7778 11.2473 34.7778 10.903C34.7778 10.4689 34.678 10.5188 34.194 11.1875C33.9694 11.5019 33.5702 12.0109 33.3157 12.3253C33.0612 12.6347 32.7517 13.0289 32.627 13.2035C32.5072 13.3732 32.3326 13.6227 32.2428 13.7475L32.0781 13.977L32.118 14.6058C32.1679 15.4143 32.1679 16.6518 32.118 17.2457ZM29.0689 19.0323C28.2355 19.8656 27.452 20.1052 26.5538 19.7958C26.1496 19.656 25.9051 19.4964 25.5907 19.167C25.2763 18.8377 25.0966 18.5182 24.897 17.9294L24.7623 17.5301L24.5477 17.4953C24.1185 17.4204 23.7941 17.0162 23.6993 16.4373C23.5945 15.7836 24.0537 15.6289 24.2433 16.2576C24.2732 16.3624 24.3231 16.4672 24.353 16.4872C24.5177 16.587 24.922 16.2726 26.943 14.4412C28.2755 13.2385 28.8344 12.7444 29.059 12.5748C29.2536 12.4251 29.4532 12.4351 29.5829 12.5948C29.7077 12.7544 29.7127 12.8692 29.6079 13.0688C29.538 13.2136 29.543 13.2435 29.7326 13.8074C30.1418 15.01 30.1618 15.1298 30.1618 16.2077C30.1618 17.1359 30.1518 17.2008 30.027 17.5452C29.8274 18.0941 29.513 18.5831 29.0689 19.0323ZM20.3957 19.4764C19.4975 20.4595 18.185 20.9386 16.9724 20.729C16.0691 20.5743 15.3555 20.195 14.7517 19.5562C14.2028 18.9724 13.8934 18.3087 13.7387 17.3755C13.6389 16.7716 13.6688 15.4143 13.7935 14.7605C13.9532 13.9371 13.9532 13.982 13.7486 13.7824C13.554 13.5928 13.5241 13.4481 13.6438 13.2784C13.7636 13.1038 13.9981 13.1138 14.4722 13.3034C14.5421 13.3283 15.9543 14.0619 17.6161 14.9252C20.6301 16.4921 21.0594 16.7067 21.1842 16.7067C21.269 16.7067 21.324 16.597 21.3988 16.2826C21.4737 15.9732 21.5285 15.9083 21.7032 15.9083C21.8779 15.9083 21.9826 16.0281 22.0575 16.3225C22.2072 16.9313 21.8629 17.5951 21.304 17.7597C21.1942 17.7947 21.0844 17.8446 21.0594 17.8745C21.0345 17.9045 20.9846 18.119 20.9547 18.3536C20.8898 18.8326 20.775 19.0622 20.3957 19.4764ZM26.0947 17.6699C26.2693 17.8196 26.5388 17.9094 26.7035 17.8695C27.2225 17.7447 27.6217 16.7866 27.492 15.9782C27.4371 15.6289 27.3722 15.4592 27.2924 15.4592C27.2674 15.4592 27.0478 15.6438 26.8083 15.8684C26.5638 16.0979 26.2194 16.4123 26.0348 16.577C25.8352 16.7467 25.6955 16.9064 25.6955 16.9663C25.6955 17.121 25.93 17.5301 26.0947 17.6699ZM18.0054 17.9893C18.2399 18.0542 18.3198 18.0592 18.5094 18.0093C19.0933 17.8496 19.3877 17.2807 19.0982 16.8565C18.8936 16.5671 17.4415 15.7586 17.1121 15.7586C17.0123 15.7586 16.9125 15.7736 16.8975 15.7936C16.7977 15.8934 16.9774 16.6918 17.2069 17.1858C17.4215 17.645 17.6661 17.8895 18.0054 17.9893ZM24.5577 22.7051C24.1984 23.5235 22.7761 24.2521 21.8629 24.0874C21.2291 23.9677 20.5654 23.4786 20.4307 23.0295C20.3259 22.6702 20.3309 22.0365 20.4456 21.9017L20.5305 21.7919L21.4537 21.8767C22.2471 21.9516 22.4917 21.9566 23.2003 21.9017C23.6544 21.8718 24.1035 21.8268 24.1984 21.8069C24.403 21.757 24.5227 21.7819 24.6076 21.8817C24.6974 21.9965 24.6724 22.4406 24.5577 22.7051ZM22.2073 23.6433C22.7661 23.6433 22.9308 23.5884 23.0057 23.3588C23.0805 23.1243 23.0356 22.745 22.9209 22.6602C22.831 22.5953 22.7312 22.5904 21.7332 22.6403C21.1244 22.6752 21.0694 22.7051 21.1243 23.0045C21.2042 23.4337 21.5535 23.6383 22.2073 23.6433ZM31.4443 29.3323C31.8635 29.3323 31.9932 29.0129 31.8934 28.2493C31.8286 27.7853 31.8785 27.5407 32.0581 27.3561C32.2577 27.1565 32.4574 27.1964 32.9364 27.5208C33.2608 27.7403 33.4005 27.8052 33.5852 27.8252C34.0642 27.8701 34.2389 27.7253 34.2389 27.2912C34.2289 26.5227 33.1161 25.3799 31.6539 24.6513C31.0701 24.3569 29.6677 23.8928 29.3783 23.8928C29.3433 23.8929 29.0539 24.1574 28.7396 24.4817C28.4202 24.801 27.9411 25.2402 27.6717 25.4598C27.2774 25.7792 27.1976 25.864 27.2524 25.9139C27.2874 25.9438 27.6217 26.0786 27.991 26.2133C28.7595 26.4878 29.2236 26.7073 29.6927 27.0167C30.3415 27.4459 30.591 27.7803 30.7557 28.454C30.9153 29.0927 31.1 29.3323 31.4443 29.3323ZM17.4414 37.3418C17.4814 38.6193 17.4914 38.6292 17.9205 37.9755C18.5693 36.9924 19.4625 36.174 20.2211 35.8796C20.3658 35.8197 20.7201 35.685 21.0145 35.5702C22.2172 35.1061 23.5047 33.9882 24.7872 32.2865C25.2563 31.6578 25.7554 30.6647 25.9151 30.0259C26.2244 28.8083 26.1945 27.0966 25.8651 26.7323C25.7504 26.6026 25.7304 26.6076 24.6475 26.9818C23.6943 27.3112 22.9009 27.5258 22.1274 27.6655C21.7381 27.7354 21.3838 27.7603 20.5305 27.7553C19.5274 27.7553 19.3777 27.7453 18.7888 27.6206C17.157 27.2713 15.2657 26.4479 13.9233 25.4997C13.6887 25.33 13.3394 25.0706 13.1498 24.9159C12.9601 24.7662 12.7555 24.6414 12.7006 24.6414C12.6407 24.6464 12.2165 24.841 11.7475 25.0805C10.0358 25.9588 8.9779 26.7922 8.12456 27.945C7.60058 28.6536 7.24126 29.5968 7.29117 30.1357C7.3261 30.4551 7.39097 30.53 7.66544 30.53C7.98481 30.53 8.11458 30.4401 8.52379 29.9361C8.72839 29.6816 8.93798 29.4471 8.99787 29.4072C9.16753 29.2874 9.44196 29.3123 9.58169 29.462C9.69647 29.5818 9.70146 29.6267 9.70645 30.1956C9.71144 30.8693 9.76139 31.039 10.0209 31.2236C10.1955 31.3484 10.5049 31.3633 10.6696 31.2486C10.8543 31.1188 10.9341 30.8493 10.979 30.2056C11.0289 29.492 11.1487 29.2025 11.6078 28.6785C12.4312 27.7354 13.4342 27.2214 14.4672 27.2164C14.8415 27.2114 14.9263 27.2314 15.2158 27.3661C16.1091 27.7953 16.5732 28.6087 16.8875 30.3054C17.0073 30.9591 17.1121 32.1367 17.0472 32.077C17.0273 32.062 16.8925 31.5879 16.7428 31.029C16.3236 29.4421 16.0991 28.7983 15.8196 28.3742C15.5651 27.9799 15.3755 27.8003 15.1808 27.7604C15.121 27.7454 15.0112 27.7254 14.9513 27.7105C14.8864 27.7005 14.7916 27.7154 14.7417 27.7553C14.6519 27.8202 14.6569 27.8452 14.7916 28.4141C14.9912 29.2674 15.2407 29.9511 15.9943 31.7077C16.3585 32.561 16.7428 33.4693 16.8376 33.7288C17.2468 34.7867 17.3915 35.67 17.4414 37.3418Z" fill="#121214"/>
</svg>
