<svg width="40" height="40" viewBox="0 0 40 40" fill="none" xmlns="http://www.w3.org/2000/svg">
<path d="M20.8692 10.6515H20.8716V1.69625H18.6526C17.923 1.69224 17.1934 1.68862 16.4638 1.68461C16.1804 1.683 15.8983 1.73076 15.633 1.82989L15.627 1.8323C12.4396 3.03108 11.3677 8.15647 11.3677 11.0986C11.3677 16.2248 12.6206 19.1822 14.413 19.6751C12.2735 20.2173 10.9631 24.111 10.9631 29.0895C10.9631 34.8562 12.7362 37.863 15.6274 37.863H20.87C20.87 36.5651 20.87 35.2672 20.87 33.9692V10.6515H20.8692ZM18.6526 33.9688C18.6526 35.6448 18.651 36.4053 18.651 37.4636H16.841C14.5859 37.0739 13.2756 34.3633 13.2756 28.7443C13.2756 22.7312 14.7597 20.6118 16.4365 20.3409H18.653V33.9688H18.6526ZM18.6526 10.6515V17.0134C18.6526 18.4919 18.651 19.3331 18.651 19.8227H17.2456C14.9905 19.8227 13.6801 16.9641 13.6801 11.0986C13.6801 4.7897 15.1643 2.57155 16.841 2.57155C18.2288 2.57155 18.6526 4.14878 18.6526 5.67665V10.6515Z" fill="#121214"/>
<path d="M28.1521 37.6323C28.6345 37.2557 28.7202 36.5594 28.3436 36.077C27.967 35.5946 27.2707 35.5089 26.7883 35.8855C26.306 36.2621 26.2202 36.9584 26.5968 37.4408C26.9734 37.9232 27.6697 38.0089 28.1521 37.6323Z" fill="#121214"/>
<path d="M28.5789 20.3435V5.67926C28.6126 5.3289 28.6564 4.51259 28.355 3.64612C28.3397 3.60278 28.137 3.03169 27.7694 2.57417C26.75 1.30436 25.1568 1.77191 24.9557 1.83492V2.35344H25.1483C25.9578 2.35344 26.3628 3.6092 26.3628 5.67926V19.8972C24.5319 19.8731 22.7006 19.8494 20.8698 19.8254C20.8698 20.0882 20.8698 20.3511 20.8698 20.3435H26.3628V26.4012C26.3628 28.4712 25.9582 29.7214 25.1483 29.7214H24.9557V30.2459C25.1568 30.3089 26.75 30.7761 27.7694 29.5067C28.1366 29.0491 28.3397 28.478 28.355 28.4347C28.6564 27.5682 28.613 26.7519 28.5789 26.4016V20.3439V20.3435Z" fill="#121214"/>
</svg>
