<svg width="24" height="24" viewBox="0 0 24 24" fill="none" xmlns="http://www.w3.org/2000/svg">
<path d="M18.9419 5.49339C17.6473 4.88766 16.263 4.44744 14.8157 4.19678C14.638 4.51812 14.4304 4.95033 14.2872 5.29416C12.7487 5.06279 11.2245 5.06279 9.7143 5.29416C9.57116 4.95033 9.3588 4.51812 9.17947 4.19678C7.73067 4.44744 6.3448 4.88928 5.05016 5.49659C2.43887 9.4426 1.73099 13.2906 2.08493 17.0839C3.81688 18.3773 5.49534 19.163 7.14548 19.6771C7.55291 19.1164 7.91628 18.5203 8.22931 17.8921C7.63313 17.6656 7.06211 17.386 6.52256 17.0615C6.6657 16.9554 6.80571 16.8445 6.94098 16.7305C10.2318 18.2697 13.8074 18.2697 17.0589 16.7305C17.1958 16.8445 17.3358 16.9554 17.4774 17.0615C16.9362 17.3876 16.3637 17.6672 15.7675 17.8937C16.0805 18.5203 16.4423 19.118 16.8513 19.6787C18.503 19.1646 20.183 18.3789 21.915 17.0839C22.3303 12.6865 21.2056 8.87383 18.9419 5.49339ZM8.67765 14.7511C7.68977 14.7511 6.87963 13.8288 6.87963 12.7058C6.87963 11.5827 7.67247 10.6589 8.67765 10.6589C9.68285 10.6589 10.493 11.5811 10.4757 12.7058C10.4772 13.8288 9.68285 14.7511 8.67765 14.7511ZM15.3223 14.7511C14.3344 14.7511 13.5243 13.8288 13.5243 12.7058C13.5243 11.5827 14.3171 10.6589 15.3223 10.6589C16.3275 10.6589 17.1376 11.5811 17.1203 12.7058C17.1203 13.8288 16.3275 14.7511 15.3223 14.7511Z" fill="#666668"/>
</svg>
