<svg width="24" height="24" viewBox="0 0 24 24" fill="none" xmlns="http://www.w3.org/2000/svg">
<path d="M19.4733 4.32814C17.0987 5.31164 6.91677 9.52913 4.1035 10.6786C2.21679 11.4149 3.32129 12.1052 3.32129 12.1052C3.32129 12.1052 4.93183 12.6574 6.31251 13.0715C7.69299 13.4857 8.42926 13.0256 8.42926 13.0256L14.9177 8.65391C17.2186 7.08931 16.6664 8.37773 16.1141 8.93008C14.9177 10.1266 12.9389 12.0132 11.2823 13.5318C10.546 14.176 10.9141 14.7282 11.2364 15.0044C12.4327 16.0168 15.7001 18.0876 15.884 18.2256C16.8561 18.9138 18.7683 19.9045 19.0592 17.8115L20.2096 10.5867C20.5778 8.14788 20.9459 5.89294 20.9918 5.24872C21.13 3.68393 19.4733 4.32814 19.4733 4.32814Z" fill="#666668"/>
</svg>
