<svg width="48" height="48" viewBox="0 0 48 48" fill="none" xmlns="http://www.w3.org/2000/svg">
<path d="M20.0898 22.745C20.0118 22.0491 19.4803 21.5404 18.9028 21.604C18.3252 21.6676 17.9178 22.2822 17.9922 22.9781C18.0666 23.674 18.6016 24.1827 19.1792 24.1191C19.7567 24.0555 20.1642 23.4409 20.0898 22.745Z" fill="#F7F7E9"/>
<path d="M22.2721 20.2124C21.3827 19.3222 20.1355 18.7994 18.8776 18.8913C16.2273 19.0643 14.5052 21.7031 14.7072 24.2182C14.7922 25.73 15.5151 27.0936 16.5816 27.9661C15.9615 27.2419 15.5151 26.2105 15.384 25.0342C15.1182 22.6321 16.2733 20.5338 17.9635 20.3502C19.6536 20.1629 21.2375 21.9609 21.5032 24.363C21.7477 26.5566 20.8016 28.4995 19.3489 28.9587C19.9654 28.9446 20.6068 28.7856 21.2445 28.4535C22.9489 27.5563 23.9197 25.5676 23.7922 23.6671C23.7178 22.3848 23.1863 21.1202 22.2686 20.2124H22.2721Z" fill="#F7F7E9"/>
<path d="M28.3065 31.0248C27.6191 30.6433 26.2939 30.2053 25.7837 30.7493C25.1565 31.4169 25.8262 33.5152 27.2258 34.2499C28.6112 34.9776 29.6281 34.6738 30.0533 33.8437C30.4962 32.9783 29.3872 31.6253 28.3065 31.0248Z" fill="#F7F7E9"/>
<path d="M24.9404 9.06524C24.9936 9.46087 24.9936 9.8671 24.9298 10.2875C24.8306 10.8385 24.044 10.7714 24.0333 10.2168C24.0404 9.3443 23.7534 8.48945 23.229 7.79003C21.6664 5.73063 18.4456 4.54726 15.9086 4.3989C15.4586 4.38477 14.7358 4.38124 14.3779 4.62144C14.3956 4.71329 14.4807 4.83692 14.5516 4.92876C14.6012 4.99588 14.7075 5.10892 14.7641 5.17603C15.409 5.87546 16.1212 6.52896 16.8547 7.14007C17.6023 7.75118 18.3747 8.35169 19.172 8.89568C19.5617 9.16062 19.9798 9.42908 20.3873 9.65869C20.5397 9.74347 20.7027 9.83178 20.8586 9.91302L21.0287 10.0013C21.2483 10.1144 21.3369 10.3828 21.2235 10.6054C21.1137 10.8173 20.8586 10.9056 20.6424 10.8138C20.6212 10.8032 20.5964 10.7926 20.568 10.782C20.0507 10.7502 19.5228 10.8738 19.0692 11.1246C18.4208 11.492 17.9708 12.1279 17.7086 12.8202C17.6909 12.8732 17.6484 12.9827 17.6307 13.0357C17.6059 13.1099 17.5562 13.2936 17.5314 13.3677C17.496 13.4949 17.4677 13.6362 17.4393 13.7669C17.3153 14.4098 17.2692 15.0598 17.2728 15.7168C17.2728 15.7309 17.2728 15.7451 17.2728 15.7627C17.2728 15.7698 17.2728 15.7804 17.2728 15.7875C17.2728 15.8016 17.2728 15.8157 17.2728 15.8298C18.1657 16.063 19.1578 15.9429 19.9338 15.4271C20.8692 14.7984 21.429 13.7881 21.8117 12.7425C21.9853 12.3151 22.5983 12.5094 22.5097 12.9474C22.5275 13.1169 22.5593 13.2971 22.5948 13.4631C22.8074 14.3851 23.1901 15.4271 24.005 15.9711C24.0475 15.9959 24.1007 16.0241 24.1396 16.0489C24.1857 16.0701 24.2353 16.0948 24.2814 16.116C24.5365 16.2219 24.8164 16.2714 25.0963 16.2714C25.5003 16.2749 25.6491 16.0842 25.727 15.7097C25.8156 15.2541 25.766 14.7383 25.7022 14.265C25.6349 13.7987 25.5322 13.3324 25.4223 12.8697L25.3869 12.7178V12.7072C25.2948 12.308 25.8333 12.1067 26.0282 12.467C26.588 13.5797 27.2648 15.5932 26.4888 16.7341C26.1558 17.2252 25.5711 17.4336 25.0007 17.4018C23.2432 17.3629 22.2369 15.9676 21.9074 14.4204C21.7019 14.8019 21.4609 15.1622 21.1775 15.4872C20.0932 16.7483 18.4208 17.211 16.8192 16.7942C16.7271 16.7695 16.6279 16.7412 16.5358 16.7059C16.3622 16.6352 16.2523 16.4833 16.224 16.3103C16.2204 16.3138 16.2169 16.3173 16.2133 16.3173C16.1779 16.3103 16.1885 16.0453 16.2381 15.5225C16.27 14.8867 16.348 14.2473 16.4897 13.6256C16.6988 12.739 17.0566 11.8735 17.6803 11.1918C18.1161 10.7043 18.6972 10.351 19.3243 10.1709C19.2039 10.1038 19.0834 10.0331 18.9629 9.96601C12.3547 12.1208 7.43666 18.1436 6.85556 25.0883C7.29847 25.2296 7.72721 25.4133 8.13823 25.6429C8.7583 25.9891 9.34648 26.413 9.83546 26.9287L9.90986 27.01C10.1225 27.2467 10.1047 27.6105 9.86735 27.8224C9.59097 28.0768 9.12326 27.9849 8.96381 27.6494C8.2835 26.8334 7.26304 26.2223 6.23904 25.9467C5.17251 25.6535 4.02449 25.7242 2.97568 26.0562C2.80915 26.1092 2.6497 26.1728 2.51151 26.2505C2.29183 26.3741 2.0686 26.5402 2.01191 26.791C1.89144 27.4445 2.71348 28.2463 3.18473 28.6561C3.87922 29.2601 4.67999 29.7582 5.4914 30.1927C5.99101 30.4647 6.5225 30.7367 7.03273 30.991C7.45083 31.203 7.99295 31.4573 8.4961 31.694C8.45712 31.5032 8.42523 31.316 8.39689 31.1253L6.99375 30.3269C7.42603 31.4185 7.85831 32.51 8.29059 33.6015C10.1154 37.685 13.4992 41.0479 17.7511 42.7646C29.3093 47.5263 42.3521 39.1863 42.3981 26.6179C42.4477 16.826 34.2947 9.24893 24.9475 9.06877L24.9404 9.06524ZM21.7869 29.4085C20.4334 30.2104 18.7078 30.3128 17.2586 29.7052C15.083 28.8257 13.687 26.5755 13.5701 24.2829C13.3539 21.1815 15.5578 18.02 18.8141 17.8504C20.359 17.7515 21.9074 18.4368 22.9456 19.5566C23.9802 20.6481 24.5755 22.1176 24.6711 23.6118C24.8306 25.8655 23.7889 28.2534 21.7869 29.4085ZM29.3872 35.3748C27.6262 35.8128 25.603 35.0392 24.7597 32.2733C23.9164 29.5074 24.4444 27.6211 25.2664 27.5187C25.2664 27.5187 26.4499 27.5928 27.0558 27.5964C28.6113 27.607 30.6345 27.3632 31.2014 27.3138C31.7719 27.2608 32.3671 27.1583 32.601 28.3205C32.9978 30.2987 31.1482 34.9368 29.3872 35.3748ZM39.8115 21.895C40.0985 23.7813 39.6769 25.922 38.1994 27.2396C37.4269 27.9249 36.3462 28.2711 35.3151 28.1121C32.9376 27.7483 31.4317 25.4098 31.1164 23.1879C30.7868 20.9801 31.5486 18.3167 33.7065 17.2923C34.6348 16.8507 35.7545 16.8684 36.6864 17.2923C38.4793 18.1118 39.521 20.0193 39.8115 21.8986V21.895Z" fill="#F7F7E9"/>
<path d="M32.4874 19.8082C32.4307 19.9283 32.3811 20.0484 32.335 20.1721C32.7992 19.4903 33.4512 19.0381 34.2094 18.9569C35.8854 18.7732 37.448 20.4582 37.696 22.7225C37.9369 24.8949 36.881 26.813 35.3149 27.1239C36.1157 27.2758 36.9519 27.0603 37.5897 26.5269C38.8759 25.4636 39.3082 23.6126 39.0708 22.0054C38.8369 20.3875 37.8944 18.7273 36.346 18.0738C34.7303 17.3956 33.1783 18.2893 32.4874 19.8082Z" fill="#F7F7E9"/>
<path d="M33.9909 22.5062C34.4534 22.4373 34.751 21.8652 34.6556 21.2285C34.5601 20.5918 34.1078 20.1315 33.6452 20.2004C33.1827 20.2693 32.8851 20.8414 32.9805 21.4781C33.076 22.1148 33.5283 22.5751 33.9909 22.5062Z" fill="#F7F7E9"/>
<path d="M45.2679 19.3649C44.9312 19.3578 44.5308 19.4143 44.1836 19.4814C43.9498 19.5309 43.723 19.6015 43.5033 19.6969C43.3864 19.7499 43.2694 19.8064 43.1596 19.87C43.5848 20.5553 43.5671 24.5999 43.5635 25.0768C43.5635 25.0945 43.5635 25.1121 43.5671 25.1298C43.8718 24.7059 44.1801 24.282 44.4494 23.8334C44.7116 23.413 44.9454 22.9467 45.1651 22.5017C45.484 21.8376 45.8064 21.1487 45.9517 20.4352C46.0049 20.1349 46.0367 19.8594 45.9234 19.6192C45.8064 19.4178 45.5619 19.379 45.2714 19.3649H45.2679Z" fill="#F7F7E9"/>
</svg>
