<svg width="24" height="24" viewBox="0 0 24 24" fill="none" xmlns="http://www.w3.org/2000/svg">
<path d="M10.0449 11.3725C10.0059 11.0245 9.74017 10.7702 9.45139 10.802C9.16262 10.8338 8.95888 11.1411 8.99608 11.4891C9.03329 11.837 9.3008 12.0913 9.58958 12.0595C9.87836 12.0278 10.0821 11.7204 10.0449 11.3725Z" fill="#666668"/>
<path d="M11.1362 10.1062C10.6915 9.66111 10.0679 9.39971 9.43894 9.44563C8.11376 9.53217 7.25274 10.8515 7.35373 12.1091C7.39625 12.865 7.75766 13.5468 8.29092 13.983C7.98089 13.621 7.75766 13.1052 7.69211 12.5171C7.55924 11.3161 8.13679 10.2669 8.98186 10.1751C9.82693 10.0815 10.6189 10.9805 10.7517 12.1815C10.874 13.2783 10.4009 14.2497 9.67457 14.4793C9.98284 14.4723 10.3035 14.3928 10.6224 14.2268C11.4746 13.7782 11.96 12.7838 11.8962 11.8336C11.859 11.1924 11.5933 10.5601 11.1344 10.1062H11.1362Z" fill="#666668"/>
<path d="M14.1532 15.5124C13.8095 15.3217 13.1469 15.1026 12.8918 15.3746C12.5782 15.7085 12.913 16.7576 13.6128 17.125C14.3055 17.4888 14.814 17.3369 15.0266 16.9218C15.2481 16.4891 14.6935 15.8127 14.1532 15.5124Z" fill="#666668"/>
<path d="M12.4702 4.53262C12.4968 4.73044 12.4968 4.93355 12.4649 5.14373C12.4153 5.41926 12.022 5.3857 12.0167 5.10841C12.0202 4.67215 11.8767 4.24473 11.6145 3.89502C10.8332 2.86531 9.2228 2.27363 7.95431 2.19945C7.72931 2.19239 7.3679 2.19062 7.18897 2.31072C7.19782 2.35664 7.24034 2.41846 7.27578 2.46438C7.30058 2.49794 7.35373 2.55446 7.38207 2.58802C7.70451 2.93773 8.06061 3.26448 8.42734 3.57003C8.80115 3.87559 9.18737 4.17584 9.58599 4.44784C9.78087 4.58031 9.98992 4.71454 10.1937 4.82934C10.2698 4.87173 10.3513 4.91589 10.4293 4.95651L10.5143 5.00067C10.6242 5.05719 10.6685 5.19142 10.6118 5.30269C10.5568 5.40866 10.4293 5.45282 10.3212 5.4069C10.3106 5.4016 10.2982 5.3963 10.284 5.391C10.0254 5.3751 9.76138 5.43692 9.53461 5.56232C9.2104 5.74601 8.9854 6.06393 8.8543 6.41011C8.84545 6.4366 8.82419 6.49135 8.81533 6.51785C8.80293 6.55494 8.77812 6.64678 8.76572 6.68387C8.74801 6.74745 8.73383 6.8181 8.71966 6.88345C8.65765 7.2049 8.63462 7.52989 8.63639 7.8584C8.63639 7.86547 8.63639 7.87253 8.63639 7.88136C8.63639 7.8849 8.63639 7.8902 8.63639 7.89373C8.63639 7.90079 8.63639 7.90786 8.63639 7.91492C9.08284 8.03149 9.5789 7.97144 9.96689 7.71357C10.4346 7.39919 10.7145 6.89405 10.9059 6.37125C10.9927 6.15754 11.2992 6.25468 11.2549 6.47369C11.2637 6.55847 11.2797 6.64855 11.2974 6.73156C11.4037 7.19254 11.595 7.71357 12.0025 7.98557C12.0238 7.99793 12.0503 8.01206 12.0698 8.02443C12.0929 8.03503 12.1177 8.04739 12.1407 8.05799C12.2682 8.11097 12.4082 8.1357 12.5482 8.1357C12.7501 8.13747 12.8245 8.04209 12.8635 7.85487C12.9078 7.62703 12.883 7.36916 12.8511 7.13249C12.8175 6.89935 12.7661 6.66621 12.7112 6.43483L12.6934 6.35889V6.35359C12.6474 6.15401 12.9167 6.05333 13.0141 6.23349C13.294 6.78984 13.6324 7.79659 13.2444 8.36707C13.0779 8.61258 12.7856 8.71678 12.5003 8.70089C11.6216 8.68146 11.1185 7.9838 10.9537 7.2102C10.8509 7.40095 10.7305 7.58111 10.5887 7.7436C10.0466 8.37414 9.2104 8.60551 8.40962 8.3971C8.36356 8.38474 8.31395 8.37061 8.26789 8.35294C8.18108 8.31762 8.12616 8.24167 8.11199 8.15513C8.11022 8.15689 8.10844 8.15866 8.10667 8.15866C8.08896 8.15513 8.09427 8.02266 8.11907 7.76126C8.13502 7.44334 8.174 7.12366 8.24486 6.8128C8.34939 6.36948 8.52832 5.93676 8.84013 5.59588C9.05804 5.35214 9.34859 5.17552 9.66217 5.08545C9.60193 5.05189 9.5417 5.01656 9.48146 4.98301C6.17736 6.0604 3.71833 9.07179 3.42778 12.5442C3.64924 12.6148 3.8636 12.7067 4.06911 12.8215C4.37915 12.9946 4.67324 13.2065 4.91773 13.4644L4.95493 13.505C5.06123 13.6233 5.05237 13.8053 4.93367 13.9112C4.79549 14.0384 4.56163 13.9925 4.48191 13.8247C4.14175 13.4167 3.63152 13.1111 3.11952 12.9734C2.58625 12.8268 2.01224 12.8621 1.48784 13.0281C1.40457 13.0546 1.32485 13.0864 1.25576 13.1253C1.14591 13.1871 1.0343 13.2701 1.00596 13.3955C0.94572 13.7222 1.35674 14.1232 1.59237 14.3281C1.93961 14.6301 2.34 14.8791 2.7457 15.0964C2.9955 15.2324 3.26125 15.3684 3.51636 15.4955C3.72542 15.6015 3.99648 15.7287 4.24805 15.847C4.22856 15.7516 4.21262 15.658 4.19844 15.5626L3.49688 15.1635C3.71302 15.7092 3.92915 16.255 4.14529 16.8008C5.05769 18.8425 6.7496 20.5239 8.87556 21.3823C14.6546 23.7632 21.176 19.5931 21.1991 13.3089C21.2239 8.41299 17.1473 4.62446 12.4738 4.53439L12.4702 4.53262ZM10.8935 14.7043C10.2167 15.1052 9.3539 15.1564 8.62931 14.8526C7.54152 14.4128 6.8435 13.2877 6.78503 12.1415C6.67696 10.5907 7.77892 9.00998 9.40705 8.9252C10.1795 8.87574 10.9537 9.21839 11.4728 9.77828C11.9901 10.324 12.2877 11.0588 12.3356 11.8059C12.4153 12.9327 11.8944 14.1267 10.8935 14.7043ZM14.6936 17.6874C13.8131 17.9064 12.8015 17.5196 12.3799 16.1367C11.9582 14.7537 12.2222 13.8105 12.6332 13.7593C12.6332 13.7593 13.2249 13.7964 13.5279 13.7982C14.3056 13.8035 15.3172 13.6816 15.6007 13.6569C15.8859 13.6304 16.1836 13.5792 16.3005 14.1603C16.4989 15.1493 15.5741 17.4684 14.6936 17.6874ZM19.9058 10.9475C20.0493 11.8907 19.8384 12.961 19.0997 13.6198C18.7135 13.9624 18.1731 14.1355 17.6576 14.0561C16.4688 13.8741 15.7159 12.7049 15.5582 11.5939C15.3934 10.4901 15.7743 9.15834 16.8532 8.64614C17.3174 8.42536 17.8772 8.43419 18.3432 8.64614C19.2396 9.0559 19.7605 10.0097 19.9058 10.9493V10.9475Z" fill="#666668"/>
<path d="M16.2437 9.90411C16.2153 9.96416 16.1905 10.0242 16.1675 10.086C16.3996 9.74515 16.7255 9.51907 17.1047 9.47845C17.9427 9.38661 18.724 10.2291 18.848 11.3612C18.9684 12.4475 18.4405 13.4065 17.6574 13.5619C18.0578 13.6379 18.4759 13.5301 18.7948 13.2635C19.4379 12.7318 19.6541 11.8063 19.5354 11.0027C19.4184 10.1938 18.9472 9.36365 18.173 9.0369C17.3651 8.69778 16.5891 9.14464 16.2437 9.90411Z" fill="#666668"/>
<path d="M16.9954 11.2533C17.2267 11.2189 17.3755 10.9329 17.3278 10.6145C17.28 10.2961 17.0539 10.066 16.8226 10.1004C16.5913 10.1349 16.4425 10.4209 16.4902 10.7393C16.5379 11.0577 16.7641 11.2878 16.9954 11.2533Z" fill="#666668"/>
<path d="M22.634 9.68243C22.4657 9.6789 22.2655 9.70716 22.0918 9.74071C21.9749 9.76544 21.8615 9.80076 21.7517 9.84845C21.6932 9.87495 21.6348 9.90321 21.5798 9.935C21.7924 10.2776 21.7836 12.3 21.7818 12.5384C21.7818 12.5472 21.7818 12.5561 21.7836 12.5649C21.9359 12.3529 22.0901 12.141 22.2247 11.9167C22.3558 11.7065 22.4727 11.4734 22.5826 11.2508C22.742 10.9188 22.9032 10.5744 22.9759 10.2176C23.0025 10.0675 23.0184 9.9297 22.9617 9.8096C22.9032 9.70892 22.781 9.68949 22.6357 9.68243H22.634Z" fill="#666668"/>
</svg>
