<svg width="24" height="24" viewBox="0 0 24 24" fill="none" xmlns="http://www.w3.org/2000/svg">
<path d="M11.2732 15.7011C11.7583 15.7819 12.9829 15.7729 13.6207 15.6831C14.471 15.5663 14.8842 15.4525 15.4621 15.1741C16.4053 14.7219 17.3904 13.8866 17.9144 13.0991C18.9713 11.5092 19.1719 9.20663 18.4204 7.29933C17.7197 5.52678 16.4442 4.20335 14.7884 3.53864C14.4621 3.4069 14.2465 3.28113 14.1028 3.12843C14.004 3.02364 14.001 3.02063 14.007 2.74816C14.0129 2.52361 14.001 2.44874 13.9501 2.34395C13.8752 2.19124 13.6776 1.99961 13.5908 1.99961C13.5159 1.99961 13.5159 2.0146 13.5937 2.25114C13.6506 2.4248 13.6536 2.45774 13.6177 2.57152C13.5638 2.7362 13.453 2.82303 13.3422 2.78112C13.2105 2.73022 13.1416 2.64039 13.1416 2.51763C13.1416 2.42481 13.1626 2.38588 13.2764 2.28108C13.3512 2.21222 13.4111 2.14336 13.4111 2.12239C13.4111 2.0685 13.2704 2.08346 13.1057 2.15532L12.953 2.2212L12.8572 2.1104C12.8063 2.05052 12.7015 1.89184 12.6236 1.75411C12.4649 1.47267 12.447 1.35288 12.5458 1.19419C12.6266 1.05946 12.5847 1.02952 12.429 1.10437C12.2583 1.18821 12.1506 1.33792 12.1296 1.50858L12.1146 1.64631L12.0428 1.49961C11.9469 1.31097 11.7553 1.11633 11.5727 1.0265C11.4319 0.954647 11.3152 0.930706 11.3152 0.969629C11.3152 0.978642 11.3751 1.05647 11.4499 1.14329C11.6894 1.42474 11.7883 1.73614 11.7044 1.95172C11.6595 2.07448 11.4589 2.27508 11.3212 2.33497C11.1894 2.39485 11.1475 2.38588 11.0816 2.29307C11.0247 2.21522 10.8241 2.11938 10.7163 2.11938C10.6115 2.11938 10.5996 2.17328 10.6864 2.25412C10.7612 2.31999 10.7642 2.45474 10.6954 2.51462C10.6115 2.58648 10.4558 2.65833 10.378 2.65834C10.2552 2.65834 9.99774 2.50863 9.90492 2.37988C9.77916 2.20622 9.74623 2.05951 9.78515 1.83795C9.83006 1.58644 9.78814 1.55649 9.63544 1.72715C9.35399 2.04154 9.24018 2.43978 9.23719 3.11048C9.23419 3.56259 9.23121 3.58055 9.15336 3.69733C9.11144 3.7632 9.00365 3.862 8.91382 3.9159C8.44972 4.20334 8.27608 4.32912 8.01858 4.55368C7.8629 4.6914 7.73414 4.8291 7.73112 4.85907C7.72513 4.90099 7.77005 4.95189 7.87185 5.02375C8.28205 5.3082 8.41379 5.8352 8.22516 6.41008C8.15031 6.64362 8.10838 6.72148 7.92574 6.99395C7.55745 7.53889 6.91968 8.00896 6.37774 8.13771C6.22803 8.17364 6.00047 8.16766 5.75495 8.11975C5.66213 8.10179 5.66215 8.1018 5.62322 8.27546C5.60226 8.37427 5.58428 8.58684 5.58427 8.75152C5.58128 9.02399 5.59029 9.0689 5.66814 9.23059C5.7879 9.47611 6.26996 9.94919 6.82388 10.3684C7.30295 10.7307 7.4826 10.8834 7.4826 10.9313C7.48257 10.9493 7.41072 10.9553 7.29398 10.9463C6.95863 10.9193 6.4526 10.6438 5.92562 10.2037C5.48548 9.83841 5.15313 9.6378 4.35069 9.26652C3.81773 9.01801 3.50332 8.90422 3.26977 8.87128L3.11108 8.85035V8.95213C3.11408 9.19466 3.51831 9.97615 3.9315 10.5241C4.45549 11.2247 5.23396 11.8775 6.00346 12.2667C6.30587 12.4194 6.35679 12.4643 6.59932 12.8086C6.89874 13.2338 7.09635 13.4644 7.40775 13.7638C8.42877 14.7399 9.88993 15.4735 11.2732 15.7011ZM18.2856 5.79624C18.3425 5.78427 18.5372 5.40102 18.633 5.11357C18.8486 4.45485 18.8995 3.65242 18.7707 2.92483C18.7078 2.58052 18.4444 1.90986 18.3695 1.90979C18.3485 1.90979 18.2886 2.05951 18.2318 2.24216C18.0102 2.97573 17.7407 3.44582 17.082 4.26023L17.0251 4.32909L17.3275 4.66146C17.4922 4.84411 17.7677 5.17645 17.9353 5.39802C18.121 5.64352 18.2587 5.80219 18.2856 5.79624ZM5.91665 7.36521C6.09031 7.44905 6.12324 7.45505 6.33882 7.44308C6.53044 7.4311 6.60531 7.41312 6.764 7.32629C6.99155 7.20653 7.37481 6.84423 7.49757 6.62865C7.70118 6.27833 7.77604 5.89506 7.68322 5.67349C7.62034 5.52678 7.42571 5.37107 7.13228 5.23334C6.54842 4.95788 6.34181 4.83811 5.97054 4.55965C5.33278 4.07759 4.89262 3.57756 4.50637 2.8889C4.46145 2.81105 4.41356 2.74816 4.39859 2.74816C4.38362 2.74817 4.35666 2.79907 4.34169 2.85895C4.24288 3.23322 4.21295 3.94584 4.27882 4.46982C4.31475 4.77523 4.42253 5.24833 4.52134 5.53577C4.61715 5.82022 4.88365 6.32622 5.0633 6.56576C5.31182 6.89512 5.69807 7.25742 5.91665 7.36521ZM19.2707 10.3474C19.2528 10.572 19.2558 10.6259 19.2857 10.6169C19.3426 10.5959 19.6989 9.98509 19.9834 9.41024C20.2379 8.90123 20.3786 8.51796 20.6301 7.65264C20.7918 7.09573 20.8666 6.74841 20.8666 6.54181C20.8666 6.28131 20.8068 6.31126 20.5163 6.71248C20.3816 6.90112 20.1421 7.20652 19.9893 7.39515C19.8366 7.58079 19.651 7.81732 19.5761 7.92212C19.5043 8.02392 19.3995 8.17364 19.3456 8.2485L19.2468 8.38622L19.2707 8.76351C19.3007 9.24856 19.3007 9.99111 19.2707 10.3474ZM17.4413 11.4194C16.9412 11.9194 16.4712 12.0631 15.9322 11.8775C15.6897 11.7936 15.543 11.6978 15.3543 11.5002C15.1657 11.3026 15.0579 11.1109 14.9381 10.7576L14.8573 10.5181L14.7285 10.4972C14.471 10.4522 14.2764 10.2097 14.2195 9.86238C14.1567 9.47014 14.4321 9.37731 14.5459 9.75457C14.5639 9.81744 14.5938 9.88034 14.6118 9.89232C14.7106 9.95221 14.9531 9.76357 16.1658 8.6647C16.9652 7.9431 17.3006 7.64667 17.4353 7.54486C17.5521 7.45505 17.6719 7.46104 17.7497 7.55685C17.8245 7.65266 17.8275 7.72154 17.7647 7.8413C17.7228 7.92813 17.7257 7.94609 17.8395 8.28444C18.085 9.00603 18.097 9.0779 18.097 9.72463C18.097 10.2815 18.091 10.3205 18.0162 10.5271C17.8964 10.8565 17.7078 11.1499 17.4413 11.4194ZM12.2374 11.6858C11.6984 12.2757 10.911 12.5631 10.1834 12.4374C9.64143 12.3446 9.21325 12.117 8.85096 11.7337C8.5216 11.3834 8.33596 10.9852 8.24314 10.4253C8.18326 10.063 8.20121 9.24855 8.27606 8.85631C8.37188 8.36228 8.37187 8.38923 8.24911 8.26946C8.13234 8.15569 8.11439 8.06886 8.18624 7.96706C8.2581 7.86227 8.39882 7.86826 8.68326 7.98203C8.72518 7.997 9.57254 8.43715 10.5696 8.95515C12.378 9.89528 12.6356 10.024 12.7105 10.024C12.7614 10.024 12.7943 9.95818 12.8392 9.76954C12.8841 9.58391 12.9171 9.54498 13.0219 9.54498C13.1267 9.54498 13.1895 9.61686 13.2344 9.79352C13.3243 10.1588 13.1177 10.557 12.7823 10.6558C12.7165 10.6768 12.6506 10.7067 12.6356 10.7247C12.6206 10.7427 12.5907 10.8714 12.5727 11.0121C12.5338 11.2996 12.4649 11.4373 12.2374 11.6858ZM15.6567 10.6019C15.7615 10.6917 15.9232 10.7456 16.022 10.7217C16.3334 10.6468 16.573 10.072 16.4951 9.58691C16.4622 9.37731 16.4233 9.2755 16.3754 9.2755C16.3604 9.2755 16.2286 9.38629 16.0849 9.52103C15.9382 9.65876 15.7316 9.8474 15.6208 9.94621C15.501 10.048 15.4172 10.1438 15.4172 10.1798C15.4172 10.2726 15.5579 10.5181 15.6567 10.6019ZM10.8032 10.7936C10.9439 10.8325 10.9918 10.8355 11.1056 10.8056C11.4559 10.7097 11.6325 10.3684 11.4589 10.1139C11.3361 9.94024 10.4648 9.45518 10.2672 9.45518C10.2073 9.45518 10.1474 9.46417 10.1385 9.47615C10.0786 9.53605 10.1864 10.0151 10.3241 10.3115C10.4529 10.587 10.5996 10.7337 10.8032 10.7936ZM14.7345 13.6231C14.519 14.1141 13.6656 14.5513 13.1177 14.4525C12.7374 14.3806 12.3392 14.0872 12.2583 13.8177C12.1955 13.6021 12.1985 13.2219 12.2673 13.141L12.3182 13.0751L12.8721 13.126C13.3482 13.171 13.4949 13.174 13.9201 13.141C14.1926 13.1231 14.4621 13.0961 14.519 13.0841C14.6417 13.0542 14.7136 13.0691 14.7645 13.129C14.8184 13.1979 14.8034 13.4644 14.7345 13.6231ZM13.3243 14.186C13.6596 14.186 13.7584 14.153 13.8034 14.0153C13.8483 13.8746 13.8213 13.647 13.7525 13.5961C13.6986 13.5572 13.6387 13.5542 13.0398 13.5842C12.6746 13.6051 12.6416 13.6231 12.6745 13.8027C12.7225 14.0602 12.9321 14.183 13.3243 14.186ZM18.8665 17.5994C19.118 17.5994 19.1959 17.4077 19.136 16.9496C19.0971 16.6712 19.127 16.5244 19.2348 16.4137C19.3546 16.2939 19.4744 16.3178 19.7618 16.5125C19.9564 16.6442 20.0403 16.6831 20.151 16.6951C20.4385 16.722 20.5433 16.6352 20.5433 16.3747C20.5373 15.9136 19.8696 15.228 18.9923 14.7908C18.642 14.6142 17.8006 14.3357 17.6269 14.3357C17.6059 14.3358 17.4323 14.4944 17.2437 14.689C17.052 14.8806 16.7646 15.1441 16.6029 15.2759C16.3664 15.4675 16.3185 15.5184 16.3514 15.5483C16.3724 15.5663 16.573 15.6471 16.7945 15.728C17.2556 15.8927 17.5341 16.0244 17.8156 16.21C18.2048 16.4675 18.3545 16.6682 18.4533 17.0724C18.5491 17.4556 18.6599 17.5994 18.8665 17.5994ZM10.4648 22.4051C10.4888 23.1716 10.4948 23.1775 10.7523 22.7853C11.1415 22.1954 11.6775 21.7044 12.1326 21.5277C12.2194 21.4918 12.432 21.411 12.6087 21.3421C13.3303 21.0637 14.1028 20.3929 14.8723 19.3719C15.1537 18.9947 15.4532 18.3988 15.549 18.0156C15.7346 17.285 15.7166 16.258 15.519 16.0394C15.4502 15.9615 15.4382 15.9645 14.7884 16.1891C14.2165 16.3867 13.7405 16.5155 13.2764 16.5993C13.0428 16.6412 12.8302 16.6562 12.3182 16.6532C11.7164 16.6532 11.6266 16.6472 11.2732 16.5724C10.2941 16.3628 9.15934 15.8687 8.3539 15.2998C8.21318 15.198 8.00358 15.0423 7.8898 14.9495C7.77602 14.8597 7.65326 14.7848 7.62033 14.7848C7.58434 14.7879 7.32986 14.9046 7.04845 15.0483C6.02145 15.5753 5.38668 16.0753 4.87467 16.767C4.56028 17.1921 4.3447 17.7581 4.37464 18.0814C4.3956 18.2731 4.43452 18.318 4.5992 18.318C4.79083 18.318 4.86869 18.2641 5.11421 17.9617C5.23697 17.809 5.36273 17.6682 5.39866 17.6443C5.50046 17.5724 5.66512 17.5874 5.74896 17.6772C5.81782 17.7491 5.82082 17.776 5.82381 18.1174C5.8268 18.5216 5.85677 18.6234 6.01247 18.7342C6.11727 18.809 6.30291 18.818 6.40171 18.7491C6.51249 18.6713 6.56038 18.5096 6.58733 18.1234C6.61727 17.6952 6.68915 17.5215 6.96461 17.2071C7.45866 16.6412 8.06048 16.3328 8.68028 16.3298C8.90485 16.3268 8.95575 16.3388 9.12941 16.4197C9.66537 16.6772 9.94383 17.1652 10.1325 18.1832C10.2043 18.5755 10.2672 19.282 10.2283 19.2462C10.2163 19.2372 10.1354 18.9528 10.0456 18.6174C9.79411 17.6653 9.65937 17.279 9.49169 17.0245C9.33899 16.788 9.22522 16.6802 9.10844 16.6562C9.07252 16.6472 9.00665 16.6353 8.97072 16.6263C8.9318 16.6203 8.8749 16.6292 8.84496 16.6532C8.79107 16.6921 8.79406 16.7071 8.8749 17.0484C8.99467 17.5604 9.14437 17.9707 9.59649 19.0246C9.81507 19.5366 10.0456 20.0816 10.1025 20.2373C10.348 20.872 10.4349 21.402 10.4648 22.4051Z" fill="#666668"/>
</svg>
