<svg width="48" height="48" viewBox="0 0 48 48" fill="none" xmlns="http://www.w3.org/2000/svg">
<path d="M22.5466 31.4021C23.5167 31.5638 25.966 31.5458 27.2415 31.3661C28.9422 31.1326 29.7686 30.905 30.9244 30.3481C32.8107 29.4439 34.7809 27.7731 35.8289 26.1982C37.9428 23.0183 38.344 18.4133 36.8409 14.5987C35.4396 11.0536 32.8886 8.4067 29.577 7.07728C28.9243 6.81379 28.4931 6.56227 28.2056 6.25686C28.008 6.04728 28.0021 6.04125 28.014 5.49632C28.026 5.04721 28.002 4.89748 27.9002 4.68789C27.7505 4.38249 27.3553 3.99923 27.1816 3.99923C27.0319 3.99923 27.0319 4.0292 27.1876 4.50228C27.3014 4.8496 27.3074 4.91549 27.2356 5.14304C27.1278 5.4724 26.9062 5.64605 26.6846 5.56223C26.4211 5.46043 26.2834 5.28078 26.2834 5.03527C26.2834 4.84962 26.3253 4.77175 26.5529 4.56216C26.7025 4.42444 26.8223 4.28672 26.8223 4.24479C26.8223 4.137 26.5409 4.16692 26.2115 4.31063L25.9061 4.44239L25.7145 4.22081C25.6127 4.10104 25.4031 3.78368 25.2474 3.50823C24.93 2.94533 24.8941 2.70576 25.0917 2.38839C25.2533 2.11891 25.1695 2.05903 24.8582 2.20874C24.5168 2.37641 24.3012 2.67583 24.2593 3.01717L24.2294 3.29261L24.0856 2.99921C23.894 2.62195 23.5107 2.23265 23.1454 2.05301C22.864 1.90929 22.6305 1.86141 22.6305 1.93926C22.6305 1.95728 22.7503 2.11295 22.8999 2.28658C23.379 2.84948 23.5766 3.47227 23.409 3.90344C23.3191 4.14896 22.9179 4.55016 22.6425 4.66994C22.379 4.7897 22.2951 4.77176 22.1634 4.58614C22.0496 4.43044 21.6484 4.23877 21.4328 4.23876C21.2232 4.23876 21.1992 4.34656 21.3729 4.50824C21.5226 4.63998 21.5286 4.90947 21.3909 5.02924C21.2232 5.17296 20.9118 5.31667 20.7561 5.31667C20.5106 5.31667 19.9956 5.01727 19.81 4.75977C19.5584 4.41244 19.4926 4.11903 19.5704 3.67589C19.6602 3.17287 19.5764 3.11298 19.271 3.45431C18.7081 4.08309 18.4805 4.87955 18.4745 6.22095C18.4685 7.12519 18.4625 7.16111 18.3068 7.39465C18.223 7.5264 18.0074 7.724 17.8278 7.83179C16.8996 8.40668 16.5523 8.65824 16.0373 9.10736C15.7259 9.3828 15.4684 9.65821 15.4624 9.71814C15.4504 9.80197 15.5402 9.90378 15.7438 10.0475C16.5642 10.6164 16.8277 11.6704 16.4504 12.8202C16.3007 13.2872 16.2169 13.443 15.8516 13.9879C15.115 15.0778 13.8395 16.0179 12.7556 16.2754C12.4562 16.3473 12.0011 16.3353 11.51 16.2395C11.3244 16.2036 11.3244 16.2036 11.2466 16.5509C11.2047 16.7485 11.1687 17.1737 11.1687 17.503C11.1627 18.048 11.1807 18.1378 11.3364 18.4612C11.5759 18.9522 12.54 19.8984 13.6479 20.7368C14.606 21.4614 14.9653 21.7668 14.9653 21.8626C14.9653 21.8985 14.8216 21.9105 14.5881 21.8926C13.9174 21.8387 12.9053 21.2877 11.8514 20.4074C10.9711 19.6768 10.3064 19.2756 8.7015 18.533C7.63557 18.036 7.00676 17.8084 6.53966 17.7426L6.22229 17.7007V17.9043C6.22828 18.3893 7.03673 19.9523 7.86313 21.0482C8.91109 22.4494 10.468 23.7549 12.007 24.5334C12.6119 24.8388 12.7137 24.9286 13.1988 25.6173C13.7976 26.4676 14.1928 26.9288 14.8156 27.5276C16.8577 29.4798 19.78 30.947 22.5466 31.4021ZM36.5714 11.5925C36.6852 11.5685 37.0745 10.802 37.2661 10.2271C37.6973 8.90971 37.799 7.30483 37.5415 5.84966C37.4158 5.16103 36.8889 3.81972 36.7391 3.81958C36.6972 3.81958 36.5774 4.11903 36.4636 4.48432C36.0205 5.95146 35.4816 6.89164 34.1641 8.52046L34.0503 8.65818L34.6551 9.32293C34.9845 9.68822 35.5355 10.3529 35.8708 10.796C36.2421 11.287 36.5175 11.6044 36.5714 11.5925ZM11.8334 14.7304C12.1807 14.8981 12.2466 14.9101 12.6778 14.8862C13.061 14.8622 13.2107 14.8262 13.5281 14.6526C13.9832 14.4131 14.7497 13.6885 14.9953 13.2573C15.4025 12.5567 15.5522 11.7901 15.3666 11.347C15.2408 11.0536 14.8515 10.7421 14.2647 10.4667C13.097 9.91576 12.6838 9.67621 11.9412 9.1193C10.6657 8.15517 9.78535 7.15511 9.01285 5.77779C8.92303 5.6221 8.82724 5.49632 8.7973 5.49632C8.76735 5.49633 8.71343 5.59814 8.68349 5.71791C8.48588 6.46645 8.42602 7.89168 8.55776 8.93964C8.62962 9.55046 8.84518 10.4967 9.0428 11.0715C9.23442 11.6404 9.76743 12.6524 10.1267 13.1315C10.6238 13.7902 11.3963 14.5148 11.8334 14.7304ZM38.5416 20.6948C38.5057 21.144 38.5117 21.2518 38.5715 21.2338C38.6854 21.1917 39.398 19.9702 39.9668 18.8205C40.4758 17.8025 40.7573 17.0359 41.2603 15.3053C41.5837 14.1915 41.7334 13.4968 41.7334 13.0836C41.7334 12.5626 41.6136 12.6225 41.0328 13.425C40.7633 13.8022 40.2842 14.413 39.9788 14.7903C39.6734 15.1616 39.3021 15.6346 39.1524 15.8442C39.0087 16.0478 38.7991 16.3473 38.6913 16.497L38.4937 16.7724L38.5416 17.527C38.6015 18.4971 38.6015 19.9822 38.5416 20.6948ZM34.8827 22.8387C33.8826 23.8388 32.9425 24.1262 31.8646 23.7549C31.3795 23.5873 31.0861 23.3956 30.7088 23.0004C30.3315 22.6052 30.1159 22.2219 29.8764 21.5153L29.7147 21.0362L29.4572 20.9943C28.9422 20.9045 28.553 20.4194 28.4392 19.7248C28.3134 18.9403 28.8644 18.7546 29.092 19.5091C29.1279 19.6349 29.1877 19.7607 29.2236 19.7846C29.4213 19.9044 29.9064 19.5271 32.3316 17.3294C33.9305 15.8862 34.6013 15.2933 34.8707 15.0897C35.1043 14.9101 35.3438 14.9221 35.4995 15.1137C35.6492 15.3053 35.6552 15.4431 35.5295 15.6826C35.4456 15.8563 35.4516 15.8922 35.6792 16.5689C36.1702 18.0121 36.1942 18.1558 36.1942 19.4493C36.1942 20.5631 36.1822 20.641 36.0325 21.0542C35.7929 21.7129 35.4156 22.2998 34.8827 22.8387ZM24.4749 23.3717C23.397 24.5514 21.822 25.1263 20.3669 24.8748C19.283 24.6891 18.4266 24.234 17.702 23.4675C17.0433 22.7669 16.672 21.9704 16.4864 20.8506C16.3666 20.126 16.4025 18.4971 16.5523 17.7126C16.7439 16.7246 16.7439 16.7785 16.4983 16.5389C16.2648 16.3114 16.2289 16.1377 16.3726 15.9341C16.5163 15.7245 16.7978 15.7365 17.3666 15.9641C17.4505 15.994 19.1452 16.8743 21.1393 17.9103C24.7561 19.7906 25.2713 20.0481 25.421 20.0481C25.5228 20.0481 25.5887 19.9164 25.6786 19.5391C25.7684 19.1678 25.8343 19.09 26.0438 19.09C26.2534 19.09 26.3792 19.2337 26.469 19.587C26.6486 20.3176 26.2355 21.1141 25.5648 21.3117C25.433 21.3536 25.3013 21.4135 25.2713 21.4494C25.2414 21.4854 25.1815 21.7428 25.1456 22.0243C25.0677 22.5991 24.93 22.8746 24.4749 23.3717ZM31.3136 21.2038C31.5232 21.3835 31.8466 21.4913 32.0442 21.4434C32.667 21.2937 33.1461 20.1439 32.9904 19.1738C32.9245 18.7546 32.8466 18.551 32.7508 18.551C32.7209 18.551 32.4574 18.7726 32.1699 19.0421C31.8765 19.3175 31.4633 19.6948 31.2417 19.8924C31.0022 20.096 30.8345 20.2876 30.8345 20.3595C30.8345 20.5451 31.116 21.0362 31.3136 21.2038ZM21.6065 21.5872C21.8879 21.665 21.9837 21.671 22.2113 21.6111C22.9119 21.4195 23.2652 20.7368 22.9179 20.2278C22.6724 19.8805 20.9298 18.9104 20.5345 18.9104C20.4148 18.9104 20.295 18.9283 20.277 18.9523C20.1573 19.0721 20.3729 20.0302 20.6483 20.623C20.9058 21.1739 21.1993 21.4674 21.6065 21.5872ZM29.4692 27.2461C29.038 28.2282 27.3314 29.1025 26.2355 28.9049C25.475 28.7612 24.6785 28.1743 24.5168 27.6354C24.3911 27.2042 24.397 26.4438 24.5348 26.282L24.6366 26.1503L25.7444 26.2521C26.6966 26.3419 26.99 26.3479 27.8404 26.282C28.3853 26.2461 28.9243 26.1922 29.038 26.1682C29.2836 26.1084 29.4273 26.1383 29.5291 26.2581C29.6369 26.3958 29.6069 26.9288 29.4692 27.2461ZM26.6487 28.372C27.3194 28.3719 27.517 28.3061 27.6068 28.0306C27.6967 27.7491 27.6428 27.294 27.505 27.1922C27.3972 27.1144 27.2775 27.1084 26.0798 27.1683C25.3492 27.2102 25.2833 27.2461 25.3492 27.6054C25.445 28.1204 25.8642 28.366 26.6487 28.372ZM37.7332 35.1987C38.2362 35.1987 38.3919 34.8154 38.2721 33.8992C38.1943 33.3423 38.2542 33.0489 38.4697 32.8273C38.7093 32.5878 38.9488 32.6357 39.5237 33.0249C39.913 33.2884 40.0807 33.3662 40.3022 33.3902C40.8771 33.4441 41.0867 33.2704 41.0867 32.7494C41.0747 31.8272 39.7393 30.4559 37.9847 29.5816C37.2841 29.2283 35.6013 28.6714 35.254 28.6714C35.2119 28.6715 34.8647 28.9888 34.4875 29.378C34.1042 29.7612 33.5294 30.2883 33.206 30.5517C32.7329 30.935 32.6371 31.0368 32.7029 31.0967C32.7449 31.1326 33.1461 31.2943 33.5892 31.456C34.5114 31.7853 35.0684 32.0488 35.6313 32.4201C36.4098 32.9351 36.7092 33.3363 36.9068 34.1448C37.0984 34.9113 37.32 35.1987 37.7332 35.1987ZM20.9297 44.8101C20.9776 46.3431 20.9897 46.3551 21.5047 45.5706C22.2831 44.3909 23.355 43.4088 24.2653 43.0555C24.4389 42.9836 24.8641 42.822 25.2175 42.6842C26.6607 42.1273 28.2056 40.7859 29.7446 38.7438C30.3076 37.9893 30.9064 36.7976 31.0981 36.0311C31.4693 34.57 31.4334 32.5159 31.0382 32.0788C30.9004 31.9231 30.8765 31.9291 29.577 32.3782C28.4332 32.7734 27.4811 33.0309 26.5529 33.1986C26.0858 33.2825 25.6606 33.3124 24.6366 33.3064C23.4329 33.3064 23.2532 33.2944 22.5466 33.1447C20.5884 32.7255 18.3188 31.7374 16.7079 30.5996C16.4265 30.396 16.0073 30.0847 15.7797 29.899C15.5522 29.7194 15.3066 29.5697 15.2408 29.5697C15.1688 29.5757 14.6599 29.8092 14.097 30.0967C12.043 31.1506 10.7735 32.1506 9.74947 33.5339C9.12069 34.3843 8.68952 35.5161 8.7494 36.1629C8.79132 36.5461 8.86917 36.636 9.19853 36.636C9.58178 36.636 9.7375 36.5282 10.2285 35.9233C10.4741 35.6179 10.7256 35.3365 10.7974 35.2886C11.001 35.1449 11.3304 35.1748 11.498 35.3544C11.6358 35.4982 11.6418 35.5521 11.6477 36.2347C11.6537 37.0432 11.7137 37.2468 12.0251 37.4683C12.2347 37.618 12.6059 37.636 12.8035 37.4983C13.0251 37.3426 13.1209 37.0192 13.1748 36.2467C13.2347 35.3904 13.3784 35.043 13.9294 34.4143C14.9174 33.2825 16.1211 32.6657 17.3607 32.6597C17.8098 32.6537 17.9116 32.6776 18.2589 32.8393C19.3309 33.3543 19.8878 34.3304 20.265 36.3665C20.4088 37.1509 20.5345 38.564 20.4567 38.4924C20.4327 38.4744 20.271 37.9055 20.0914 37.2348C19.5883 35.3305 19.3189 34.558 18.9835 34.049C18.6781 33.5759 18.4506 33.3603 18.217 33.3124C18.1452 33.2945 18.0134 33.2705 17.9416 33.2525C17.8637 33.2406 17.7499 33.2585 17.69 33.3064C17.5823 33.3842 17.5882 33.4142 17.7499 34.0969C17.9895 35.1209 18.2889 35.9413 19.1931 38.0492C19.6303 39.0732 20.0914 40.1631 20.2052 40.4745C20.6962 41.744 20.8699 42.804 20.9297 44.8101Z" fill="#F7F7E9"/>
</svg>
