<svg width="48" height="48" viewBox="0 0 48 48" fill="none" xmlns="http://www.w3.org/2000/svg">
<path d="M25.043 12.7818H25.0459V2.0355H22.3832C21.5076 2.03068 20.6321 2.02635 19.7565 2.02153C19.4165 2.0196 19.078 2.07691 18.7596 2.19587L18.7524 2.19876C14.9276 3.63729 13.6412 9.78776 13.6412 13.3183C13.6412 19.4698 15.1448 23.0187 17.2956 23.6101C14.7282 24.2607 13.1558 28.9332 13.1558 34.9074C13.1558 41.8274 15.2835 45.4355 18.7529 45.4355H25.044C25.044 43.8781 25.044 42.3206 25.044 40.7631V12.7818H25.043ZM22.3832 40.7626C22.3832 42.7738 22.3812 43.6864 22.3812 44.9564H20.2092C17.5031 44.4887 15.9307 41.236 15.9307 34.4932C15.9307 27.2774 17.7117 24.7341 19.7238 24.409H22.3836V40.7626H22.3832ZM22.3832 12.7818V20.4161C22.3832 22.1903 22.3812 23.1997 22.3812 23.7873H20.6947C17.9886 23.7873 16.4162 20.3569 16.4162 13.3183C16.4162 5.74765 18.1971 3.08586 20.2092 3.08586C21.8746 3.08586 22.3832 4.97854 22.3832 6.81198V12.7818Z" fill="#F7F7E9"/>
<path d="M33.7825 45.1588C34.3614 44.7069 34.4643 43.8713 34.0124 43.2924C33.5604 42.7136 32.7248 42.6107 32.146 43.0626C31.5671 43.5145 31.4643 44.3501 31.9162 44.929C32.3681 45.5078 33.2037 45.6107 33.7825 45.1588Z" fill="#F7F7E9"/>
<path d="M34.2947 24.4122V6.81512C34.3351 6.39468 34.3876 5.41511 34.026 4.37535C34.0077 4.32333 33.7645 3.63802 33.3233 3.089C32.1001 1.56523 30.1881 2.12629 29.9468 2.2019V2.82412H30.178C31.1494 2.82412 31.6353 4.33104 31.6353 6.81512V23.8766C29.4383 23.8477 27.2407 23.8193 25.0437 23.7904C25.0437 24.1059 25.0437 24.4213 25.0437 24.4122H31.6353V31.6814C31.6353 34.1655 31.1499 35.6656 30.178 35.6656H29.9468V36.2951C30.1881 36.3707 32.1001 36.9313 33.3233 35.408C33.764 34.859 34.0077 34.1737 34.026 34.1216C34.3876 33.0819 34.3356 32.1023 34.2947 31.6819V24.4127V24.4122Z" fill="#F7F7E9"/>
</svg>
