<svg width="24" height="24" viewBox="0 0 24 24" fill="none" xmlns="http://www.w3.org/2000/svg">
<path d="M12.5215 6.39092H12.523V1.01775H11.1916C10.7538 1.01534 10.316 1.01317 9.87826 1.01077C9.70826 1.0098 9.53898 1.03846 9.37981 1.09793L9.3762 1.09938C7.46378 1.81865 6.82061 4.89388 6.82061 6.65917C6.82061 9.73489 7.57238 11.5093 8.64778 11.805C7.36409 12.1304 6.57788 14.4666 6.57788 17.4537C6.57788 20.9137 7.64173 22.7178 9.37644 22.7178H12.522C12.522 21.939 12.522 21.1603 12.522 20.3815V6.39092H12.5215ZM11.1916 20.3813C11.1916 21.3869 11.1906 21.8432 11.1906 22.4782H10.1046C8.75157 22.2444 7.96536 20.618 7.96536 17.2466C7.96536 13.6387 8.85583 12.3671 9.86189 12.2045H11.1918V20.3813H11.1916ZM11.1916 6.39092V10.2081C11.1916 11.0952 11.1906 11.5999 11.1906 11.8936H10.3473C8.99429 11.8936 8.20809 10.1784 8.20809 6.65917C8.20809 2.87382 9.09856 1.54293 10.1046 1.54293C10.9373 1.54293 11.1916 2.48927 11.1916 3.40599V6.39092Z" fill="#666668"/>
<path d="M16.8911 22.5794C17.1806 22.3534 17.232 21.9356 17.0061 21.6462C16.7801 21.3568 16.3623 21.3053 16.0729 21.5313C15.7835 21.7573 15.732 22.1751 15.958 22.4645C16.1839 22.7539 16.6017 22.8053 16.8911 22.5794Z" fill="#666668"/>
<path d="M17.1475 12.2061V3.40756C17.1677 3.19734 17.1939 2.70756 17.0131 2.18767C17.004 2.16167 16.8823 1.81901 16.6618 1.5445C16.0501 0.782615 15.0942 1.06315 14.9735 1.10095V1.41206H15.0891C15.5748 1.41206 15.8178 2.16552 15.8178 3.40756V11.9383C14.7193 11.9239 13.6205 11.9097 12.522 11.8952C12.522 12.0529 12.522 12.2107 12.522 12.2061H15.8178V15.8407C15.8178 17.0827 15.5751 17.8328 15.0891 17.8328H14.9735V18.1475C15.0942 18.1854 16.0501 18.4656 16.6618 17.704C16.8821 17.4295 17.004 17.0868 17.0131 17.0608C17.1939 16.5409 17.1679 16.0512 17.1475 15.8409V12.2063V12.2061Z" fill="#666668"/>
</svg>
