<svg width="24" height="24" viewBox="0 0 24 24" fill="none" xmlns="http://www.w3.org/2000/svg">
<path d="M5.09969 11.0269C9.39522 9.05134 12.2589 7.74881 13.6908 7.11954C17.7837 5.32264 18.6331 5.01055 19.1879 5.0001C19.3099 4.99792 19.5815 5.02976 19.7588 5.18118C19.9084 5.30878 19.9476 5.48135 19.9683 5.60239C19.9867 5.72343 20.012 5.9993 19.9936 6.21465C19.7703 8.67436 18.8104 14.6433 18.3223 17.3983C18.1175 18.5641 17.71 18.9549 17.3164 18.9931C16.4601 19.0762 15.8109 18.3961 14.9821 17.8227C13.6861 16.9251 12.9541 16.3666 11.6949 15.4908C10.2401 14.4788 11.1839 13.9224 12.0126 13.0134C12.229 12.7754 15.9996 9.15513 16.071 8.82676C16.0802 8.78568 16.0894 8.63256 16.0043 8.55186C15.9168 8.47093 15.7902 8.49863 15.6981 8.52051C15.5692 8.55162 13.4974 9.99731 9.4827 12.8573C8.89569 13.2837 8.36395 13.4915 7.88513 13.4805C7.36028 13.4686 6.34735 13.1665 5.5969 12.9084C4.6738 12.5917 3.93949 12.4242 4.00394 11.8863C4.03617 11.6063 4.40219 11.3198 5.09969 11.0269Z" fill="white"/>
</svg>
