<svg width="24" height="24" viewBox="0 0 24 24" fill="none" xmlns="http://www.w3.org/2000/svg">
<path d="M6.66667 5C5.95942 5 5.28115 5.28095 4.78105 5.78105C4.28095 6.28115 4 6.95942 4 7.66667V13C4 13.7072 4.28095 14.3855 4.78105 14.8856C5.28115 15.3857 5.95942 15.6667 6.66667 15.6667H17.3333C18.0406 15.6667 18.7189 15.3857 19.219 14.8856C19.719 14.3855 20 13.7072 20 13V7.66667C20 6.95942 19.719 6.28115 19.219 5.78105C18.7189 5.28095 18.0406 5 17.3333 5H6.66667ZM6.66667 17.6667C6.66667 17.4899 6.7369 17.3203 6.86193 17.1953C6.98695 17.0702 7.15652 17 7.33333 17H16.6667C16.8435 17 17.013 17.0702 17.1381 17.1953C17.2631 17.3203 17.3333 17.4899 17.3333 17.6667C17.3333 17.8435 17.2631 18.013 17.1381 18.1381C17.013 18.2631 16.8435 18.3333 16.6667 18.3333H7.33333C7.15652 18.3333 6.98695 18.2631 6.86193 18.1381C6.7369 18.013 6.66667 17.8435 6.66667 17.6667Z" fill="#EAE9E3"/>
</svg>
