<svg width="24" height="24" viewBox="0 0 24 24" fill="none" xmlns="http://www.w3.org/2000/svg">
<g clip-path="url(#clip0_264_8902)">
<path d="M11.5703 4C7.15911 4 3.57031 7.5888 3.57031 12C3.57031 16.4112 7.15911 20 11.5703 20C15.9815 20 19.5703 16.4112 19.5703 12C19.5703 7.5888 15.9815 4 11.5703 4ZM5.17031 12C5.17031 11.2808 5.29511 10.5904 5.51511 9.9448L6.77031 11.2L8.37031 12.8V14.4L9.97031 16L10.7703 16.8V18.3448C7.61911 17.9488 5.17031 15.2576 5.17031 12ZM16.6343 15.8984C16.1119 15.4776 15.3199 15.2 14.7703 15.2V14.4C14.7703 13.9757 14.6017 13.5687 14.3017 13.2686C14.0016 12.9686 13.5947 12.8 13.1703 12.8H9.97031V10.4C10.3947 10.4 10.8016 10.2314 11.1017 9.93137C11.4017 9.63131 11.5703 9.22435 11.5703 8.8V8H12.3703C12.7947 8 13.2016 7.83143 13.5017 7.53137C13.8017 7.23131 13.9703 6.82435 13.9703 6.4V6.0712C16.3127 7.0224 17.9703 9.32 17.9703 12C17.97 13.4117 17.5 14.7832 16.6343 15.8984Z" fill="#5C5C5E"/>
</g>
<defs>
<clipPath id="clip0_264_8902">
<rect width="24" height="24" fill="white"/>
</clipPath>
</defs>
</svg>
